<?xml version="1.0" encoding="utf-8"?>
<!-- Generator: Adobe Illustrator 27.5.0, SVG Export Plug-In . SVG Version: 6.00 Build 0)  -->
<svg version="1.1" xmlns="http://www.w3.org/2000/svg" xmlns:xlink="http://www.w3.org/1999/xlink" x="0px" y="0px"
	 viewBox="0 0 800 800" style="enable-background:new 0 0 800 800;" xml:space="preserve">
<g id="BACKGROUND">
	<rect style="fill:#FFFFFF;" width="800" height="800"/>
</g>
<g id="OBJECTS">
	<g>
		<g>
			<linearGradient id="SVGID_1_" gradientUnits="userSpaceOnUse" x1="148" y1="36.1114" x2="148" y2="260.6468">
				<stop  offset="0" style="stop-color:#D22F02"/>
				<stop  offset="0.2371" style="stop-color:#CC2D02"/>
				<stop  offset="0.5378" style="stop-color:#BD2602"/>
				<stop  offset="0.8716" style="stop-color:#A31C03"/>
				<stop  offset="1" style="stop-color:#971703"/>
			</linearGradient>
			<path style="fill:url(#SVGID_1_);" d="M216.265,139.945c0,0-7.662,19.587-20.473,13.145
				c-15.024-7.554,9.395-25.878,13.858-34.995c8.637-17.644-1.595-34.286-15.11-46.019c0,0,3.877,6.95,2.626,14.012
				c-2.618,14.777-19.798,9.194-18.435-4.237c0.569-5.606,3.466-10.672,5.173-16.042c3.093-9.73,1.969-20.646-2.708-29.697
				c1.535,4.212,1.763,9.011,0.816,13.425c-1.62,7.542-6.104,14.143-10.981,20.121c-1.336,1.637-2.711,3.248-4.085,4.86
				c-3.983,4.672-11.762,0.965-10.388-5.018c0.031-0.137,0.066-0.268,0.104-0.392c1.988-6.449,5.992-12.261,11.515-16.177
				c-11.9,6.839-19.472,17.323-20.354,31.086c-0.507,7.913,2.806,19.523-4.024,25.563c-7.14,6.314-17.434,1.089-15.025-11.049
				c1.396-7.035,7.532-12.106,7.53-12.105c-17.356,6.211-24.121,27.573-28.614,43.564c-2.35,8.365-3.17,18.089-6.541,26.077
				c-3.976,9.42-13.857,8.968-18.204-0.691c-2.944-6.541-0.887-14.23-0.887-14.23c-4.987,13.314-6.117,44.464-6.117,47.444
				c0,39.796,32.261,72.058,72.058,72.058s72.058-32.261,72.058-72.058C220.058,185.944,216.265,139.945,216.265,139.945z"/>
			
				<linearGradient id="SVGID_00000169550139877224701080000004722622532795623102_" gradientUnits="userSpaceOnUse" x1="113.5256" y1="131.2418" x2="175.4294" y2="238.4624">
				<stop  offset="0" style="stop-color:#FF6100"/>
				<stop  offset="0.2918" style="stop-color:#FF6D01"/>
				<stop  offset="0.812" style="stop-color:#FF8B02"/>
				<stop  offset="1" style="stop-color:#FF9803"/>
			</linearGradient>
			<path style="fill:url(#SVGID_00000169550139877224701080000004722622532795623102_);" d="M187.298,170.571
				c0,0-5.058,12.932-13.517,8.679c-9.919-4.987,6.203-17.086,9.15-23.105c5.703-11.649-1.053-22.637-9.976-30.383
				c0,0,2.56,4.589,1.734,9.251c-1.729,9.756-13.071,6.07-12.171-2.798c0.376-3.701,2.289-7.046,3.416-10.592
				c2.042-6.424,1.3-13.632-1.788-19.607c1.013,2.781,1.164,5.949,0.538,8.864c-1.069,4.98-4.03,9.338-7.25,13.284
				c-0.882,1.081-1.79,2.145-2.697,3.208c-2.63,3.085-7.766,0.637-6.859-3.313c0.021-0.09,0.044-0.177,0.069-0.258
				c1.313-4.258,3.956-8.096,7.602-10.681c-7.857,4.516-12.856,11.438-13.439,20.524c-0.335,5.225,1.853,12.89-2.657,16.878
				c-4.714,4.169-11.511,0.719-9.92-7.295c0.922-4.645,4.973-7.993,4.972-7.992c-11.503,3.975-15.925,18.204-18.892,28.762
				c-1.552,5.523-2.093,11.943-4.319,17.217c-2.625,6.22-9.149,5.921-12.019-0.456c-1.944-4.318-0.585-9.395-0.585-9.395
				c-3.293,8.79-4.038,29.356-4.038,31.324c0,26.275,21.3,47.575,47.575,47.575c26.275,0,47.575-21.3,47.575-47.575
				C189.802,200.941,187.298,170.571,187.298,170.571z"/>
			
				<linearGradient id="SVGID_00000152983889274131039320000003977404926455528072_" gradientUnits="userSpaceOnUse" x1="122.5227" y1="182.1077" x2="152.5699" y2="234.151">
				<stop  offset="0.0051" style="stop-color:#FF9803"/>
				<stop  offset="0.9949" style="stop-color:#FAF154"/>
			</linearGradient>
			<path style="fill:url(#SVGID_00000152983889274131039320000003977404926455528072_);" d="M158.331,201.198
				c0,0-2.455,6.277-6.561,4.213c-4.815-2.421,3.011-8.293,4.441-11.215c2.768-5.654-0.511-10.988-4.842-14.748
				c0,0,1.242,2.227,0.842,4.49c-0.839,4.736-6.345,2.947-5.908-1.358c0.182-1.797,1.111-3.42,1.658-5.141
				c0.991-3.118,0.631-6.617-0.868-9.517c0.492,1.35,0.565,2.888,0.261,4.302c-0.519,2.417-1.956,4.532-3.519,6.448
				c-0.428,0.525-0.869,1.041-1.309,1.557c-1.276,1.497-3.769,0.309-3.329-1.608c0.01-0.044,0.021-0.086,0.034-0.125
				c0.637-2.067,1.92-3.929,3.69-5.184c-3.814,2.192-6.24,5.552-6.523,9.962c-0.163,2.536,0.899,6.257-1.29,8.192
				c-2.288,2.023-5.587,0.349-4.815-3.541c0.447-2.255,2.414-3.879,2.414-3.879c-5.563,1.991-7.73,8.836-9.17,13.961
				c-0.753,2.681-1.016,5.797-2.096,8.357c-1.274,3.019-4.441,2.874-5.834-0.221c-0.943-2.096-0.284-4.56-0.284-4.56
				c-1.598,4.267-1.96,14.249-1.96,15.204c0,12.753,10.339,23.092,23.092,23.092c12.753,0,23.092-10.339,23.092-23.092
				C159.546,215.939,158.331,201.198,158.331,201.198z"/>
		</g>
		<g>
			
				<linearGradient id="SVGID_00000104683329710563163520000006066795445192829605_" gradientUnits="userSpaceOnUse" x1="98.7132" y1="306.6689" x2="193.2892" y2="470.4794">
				<stop  offset="0" style="stop-color:#D22F02"/>
				<stop  offset="0.2371" style="stop-color:#CC2D02"/>
				<stop  offset="0.5378" style="stop-color:#BD2602"/>
				<stop  offset="0.8716" style="stop-color:#A31C03"/>
				<stop  offset="1" style="stop-color:#971703"/>
			</linearGradient>
			<path style="fill:url(#SVGID_00000104683329710563163520000006066795445192829605_);" d="M77.51,397.635
				c10.632-42.528,55.075-53.672,67.999-66.486c8.272-8.201,16.234-24.081,11.515-58.147c20.926,11.005,36.731,31.321,42.252,54.312
				c5.521,22.99,2.731,48.098-10.916,67.405c-10.897,15.417-26.497,21.008-37.499,39.082c-11.382,18.699-10.216,43.221-1.572,62.081
				c-4.16-2.22-25.69-12.441-44.387-29.278S70.34,426.316,77.51,397.635z"/>
			
				<linearGradient id="SVGID_00000058577484193726222610000000518851211597608841_" gradientUnits="userSpaceOnUse" x1="145.0287" y1="349.8169" x2="188.7368" y2="457.1886" gradientTransform="matrix(0.9906 -0.1366 0.1366 0.9906 -69.5707 23.6089)">
				<stop  offset="0" style="stop-color:#FF6100"/>
				<stop  offset="0.2918" style="stop-color:#FF6D01"/>
				<stop  offset="0.812" style="stop-color:#FF8B02"/>
				<stop  offset="1" style="stop-color:#FF9803"/>
			</linearGradient>
			<path style="fill:url(#SVGID_00000058577484193726222610000000518851211597608841_);" d="M176.767,318.636
				c0.376,0.456-3.507,18.44-35.645,38.254c-34.984,21.569-51.74,36.016-51.106,56.59c0.594,19.296,25.26,51.494,41.126,65.358
				c-0.795-1.155-9.405-27.73,19.056-58.82c19.405-21.197,30.977-40.567,35.233-57.626
				C189.687,345.334,186.627,330.587,176.767,318.636z"/>
			
				<linearGradient id="SVGID_00000123419971419873205740000004571820422825944733_" gradientUnits="userSpaceOnUse" x1="126.4417" y1="388.6776" x2="151.0279" y2="431.2621">
				<stop  offset="0.0051" style="stop-color:#FF9803"/>
				<stop  offset="0.9949" style="stop-color:#FAF154"/>
			</linearGradient>
			<path style="fill:url(#SVGID_00000123419971419873205740000004571820422825944733_);" d="M155.982,371.623
				c0.155,0.251-2.992,8.88-20.235,16.487c-18.771,8.281-28.042,14.283-29.131,24.5c-1.022,9.583,8.981,27.187,15.881,35.125
				c-0.314-0.625-2.76-14.354,13.434-27.788c11.041-9.159,18.085-17.949,21.352-26.095
				C160.55,385.706,160.043,378.205,155.982,371.623z"/>
			
				<linearGradient id="SVGID_00000150072077848980793770000010274123880299574447_" gradientUnits="userSpaceOnUse" x1="249.438" y1="501.0827" x2="343.6912" y2="541.6782" gradientTransform="matrix(0.8018 0.5976 -0.5976 0.8018 256.1318 -177.283)">
				<stop  offset="0" style="stop-color:#D22F02"/>
				<stop  offset="0.2371" style="stop-color:#CC2D02"/>
				<stop  offset="0.5378" style="stop-color:#BD2602"/>
				<stop  offset="0.8716" style="stop-color:#A31C03"/>
				<stop  offset="1" style="stop-color:#971703"/>
			</linearGradient>
			<path style="fill:url(#SVGID_00000150072077848980793770000010274123880299574447_);" d="M215.947,339.334
				c3.317,18.027,5.041,58.555-36.287,84.622c-24.231,15.283-36.863,43.634-31.126,71.703l0.201,0.981
				C147.824,452.322,241.083,449.13,215.947,339.334z"/>
		</g>
		<g>
			<g>
				
					<linearGradient id="SVGID_00000152949990564010163900000008436587872181152660_" gradientUnits="userSpaceOnUse" x1="103.1616" y1="536.6516" x2="138.7542" y2="605.5862" gradientTransform="matrix(0.995 -0.0999 0.0999 0.995 -55.0372 18.0057)">
					<stop  offset="0" style="stop-color:#D22F02"/>
					<stop  offset="0.2371" style="stop-color:#CC2D02"/>
					<stop  offset="0.5378" style="stop-color:#BD2602"/>
					<stop  offset="0.8716" style="stop-color:#A31C03"/>
					<stop  offset="1" style="stop-color:#971703"/>
				</linearGradient>
				<path style="fill:url(#SVGID_00000152949990564010163900000008436587872181152660_);" d="M140.606,517.356
					c9.749,8.582,9.424,24.344,3.844,36.073c-5.581,11.729-15.196,20.969-22.683,31.583c-9.82,13.921-15.981,30.4-17.702,47.349
					c-8.367-26.224-1.131-56.802,18.103-76.495c5.471-5.601,11.866-10.437,16.111-17.016c4.245-6.58,5.83-15.763,1.124-22.021"/>
			</g>
			<g>
				<g>
					
						<linearGradient id="SVGID_00000070108506490468270540000016085425740713878183_" gradientUnits="userSpaceOnUse" x1="102.3086" y1="548.2039" x2="194.7264" y2="708.2762">
						<stop  offset="0" style="stop-color:#D22F02"/>
						<stop  offset="0.2371" style="stop-color:#CC2D02"/>
						<stop  offset="0.5378" style="stop-color:#BD2602"/>
						<stop  offset="0.8716" style="stop-color:#A31C03"/>
						<stop  offset="1" style="stop-color:#971703"/>
					</linearGradient>
					<path style="fill:url(#SVGID_00000070108506490468270540000016085425740713878183_);" d="M194.352,639.098
						c-1.451-6.717-5-13.505-11.229-16.408c-6.228-2.903-15.189-0.002-16.656,6.712c5.232-1.216,11.024,3.113,11.34,8.475
						c0.656,11.116-13.383,11.55-18.17,3.506c-2.817-4.733-2.504-10.773-0.756-15.997c1.748-5.223,4.779-9.903,7.3-14.8
						c15.275-29.664,9.837-67.377-11.718-92.494c22.91,35.609-58.09,89.609-46.752,156.929c1.89,11.224,8.552,21.086,15.409,30.172
						c7.186,9.522,15.392,18.415,25.245,25.141c0.098,0.067,0.197,0.134,0.296,0.201c11.855,8.01,33.107-31.793,36.158-40.155
						C190.866,673.807,198.076,656.341,194.352,639.098z"/>
				</g>
				<g>
					
						<linearGradient id="SVGID_00000155106083188057135540000012526983820350333322_" gradientUnits="userSpaceOnUse" x1="118.197" y1="603.4952" x2="159.0623" y2="711.7673" gradientTransform="matrix(0.9868 -0.162 0.162 0.9868 -102.5386 36.5584)">
						<stop  offset="0" style="stop-color:#FF6100"/>
						<stop  offset="0.2918" style="stop-color:#FF6D01"/>
						<stop  offset="0.812" style="stop-color:#FF8B02"/>
						<stop  offset="1" style="stop-color:#FF9803"/>
					</linearGradient>
					<path style="fill:url(#SVGID_00000155106083188057135540000012526983820350333322_);" d="M135.828,599.096
						c5.06,6.848,1.26,17.73-2.632,28.295c-4.223,11.464-9.674,24.266-11.615,37.496c-1.097,7.476-1.083,15.098,0.92,22.684
						c1.548,5.929,5.474,10.686,8.805,15.639c4.91,7.3,11.091,14.046,19.289,18.427c7.599,4.061,14.641-14.725,16.405-20.634
						c2.879-9.641,5.922-20.847,3.057-30.749c-0.406-1.405-0.958-2.785-1.659-4.063c-1.28-2.335-3.062-4.284-5.352-5.303
						c-3.267-1.455-7.456-0.061-8.248,2.356c1.62-1.242,3.785-0.193,3.855,1.637c0.153,3.985-6.297,4.435-9.364,0.507
						c-1.818-2.335-2.361-5.51-2.086-8.546c0.259-2.862,1.109-5.667,1.727-8.578C152.589,631.049,146.935,610.344,135.828,599.096z"
						/>
				</g>
				
					<linearGradient id="SVGID_00000096741546262378108030000018251632756096124831_" gradientUnits="userSpaceOnUse" x1="127.0581" y1="632.2019" x2="148.6831" y2="706.4266" gradientTransform="matrix(0.9713 -0.2378 0.2378 0.9713 -152.4732 59.8575)">
					<stop  offset="0.0051" style="stop-color:#FF9803"/>
					<stop  offset="0.9949" style="stop-color:#FAF154"/>
				</linearGradient>
				<path style="fill:url(#SVGID_00000096741546262378108030000018251632756096124831_);" d="M158.716,680.699
					c-4.723-4.893-13.014-6.535-15.094-15.009c-2.022-8.238-5.987-24.456-7.484-30.57c0.864,3.528-2.854,11.375-3.671,14.938
					c-1.522,6.634-2.783,13.348-3.313,20.142c-0.558,7.142-0.385,14.43,1.294,21.423c2.326,9.689,9.43,16.532,17.892,21.278
					c5.293,2.969,6.857,1.384,9.247-3.92c2.983-6.619,6.221-16.38,3.877-23.764C160.883,683.391,159.915,681.94,158.716,680.699z"/>
			</g>
		</g>
		<g>
			<g>
				
					<linearGradient id="SVGID_00000123440250521761331130000004052850711697568696_" gradientUnits="userSpaceOnUse" x1="344.2577" y1="66.5519" x2="448.8848" y2="247.7714">
					<stop  offset="0" style="stop-color:#D22F02"/>
					<stop  offset="0.2371" style="stop-color:#CC2D02"/>
					<stop  offset="0.5378" style="stop-color:#BD2602"/>
					<stop  offset="0.8716" style="stop-color:#A31C03"/>
					<stop  offset="1" style="stop-color:#971703"/>
				</linearGradient>
				<path style="fill:url(#SVGID_00000123440250521761331130000004052850711697568696_);" d="M353.324,168.145L353.324,168.145
					L353.324,168.145L353.324,168.145l0.002-0.001l0,0L353.324,168.145L353.324,168.145z M449.592,192.684
					c2.22,2.762,3.551,6.268,3.551,10.088c0,8.902-7.216,16.118-16.118,16.118s-16.118-7.216-16.118-16.118
					c0-0.819,0.062-1.624,0.18-2.411c-0.378-14.134,18.088-34.046,23.188-40.531c11.86-15.079,32.234-47.455-15.222-75.213
					c0,0,6.179,7.418,6.268,16.117c0.153,15.009-13.288,18.932-20.385,9.806C402.756,94.88,435.37,68.79,396.982,36.111
					c7.594,7.051,23.879,27.666-1.057,57.46c-4.862,5.808-6.685,12.437-7.596,19.163c-13.254-23.868-0.028-40.331,6.594-46.479
					c-38.388,32.679-5.774,58.769-17.955,74.43c-7.098,9.125-20.538,5.202-20.385-9.806c0.089-8.699,6.268-16.117,6.268-16.117
					c-23.728,13.879-30.968,47.557-24.682,79.017c6.286,31.46,26.098,60.701,56.473,65.704c38.054,6.268,64.471-13.73,66.609-36.956
					C461.828,216.258,458.792,199.418,449.592,192.684z"/>
				
					<linearGradient id="SVGID_00000011717825632397584720000009045132163590949784_" gradientUnits="userSpaceOnUse" x1="359.4093" y1="133.2123" x2="423.5403" y2="244.2905">
					<stop  offset="0" style="stop-color:#FF6100"/>
					<stop  offset="0.2918" style="stop-color:#FF6D01"/>
					<stop  offset="0.812" style="stop-color:#FF8B02"/>
					<stop  offset="1" style="stop-color:#FF9803"/>
				</linearGradient>
				<path style="fill:url(#SVGID_00000011717825632397584720000009045132163590949784_);" d="M366.625,196.943L366.625,196.943
					L366.625,196.943L366.625,196.943L366.625,196.943L366.625,196.943L366.625,196.943l-0.001,0.001l0,0h0l0,0l0,0L366.625,196.943
					L366.625,196.943L366.625,196.943L366.625,196.943L366.625,196.943z M391.896,114.456c3.861,5.381,10.889,17.622-1.888,34.125
					c-2.249,2.906-3.399,5.971-4.005,8.789c-0.243,0.602-0.446,1.213-0.618,1.827c-5.366-8.977-3.204-15.964-0.483-20.424
					c0.868-2.323,2.212-3.977,3.163-4.902c-5.987,5.032-8.822,10.008-10.163,14.484c-3.584,11.972,4.799,21.631,0.572,28.42
					c-0.173,0.279-0.365,0.551-0.576,0.817c-4.323,5.414-12.243,3.306-12.151-5.322c0.034-3.158,1.661-5.734,2.529-7.228
					c0.531-1.073,0.982-1.697,0.867-1.629c-14.049,8.233-18.354,28.778-14.707,46.853c3.861,19.072,16.514,36.521,35.78,39.491
					C414.12,253.459,432,243.56,432,229.161c0-9-6.932-14.583-7.231-12.789c-0.681,4.188-4.953,7.438-9.938,6.941
					c-4.968-0.483-8.97-4.705-9.138-9.944c-0.014-0.475,0.005-0.943,0.053-1.403c-0.353-8.097,9.011-19.419,12.431-24.284
					c6.605-9.396,18.4-27.623-3.003-44.14c-0.047-0.109,2.197,4.142,1.492,9.176c-1.141,8.149-8.709,10.832-13.36,6.574
					c-0.969-0.887-1.58-1.874-2.068-2.944C397.329,147.766,410.363,132.436,391.896,114.456z"/>
				
					<linearGradient id="SVGID_00000046319428577720912560000008393439781598937779_" gradientUnits="userSpaceOnUse" x1="376.4071" y1="198.807" x2="399.019" y2="237.9719">
					<stop  offset="0.0051" style="stop-color:#FF9803"/>
					<stop  offset="0.9949" style="stop-color:#FAF154"/>
				</linearGradient>
				<path style="fill:url(#SVGID_00000046319428577720912560000008393439781598937779_);" d="M379.925,225.743L379.925,225.743
					L379.925,225.743L379.925,225.743L379.925,225.743L379.925,225.743L379.925,225.743L379.925,225.743L379.925,225.743
					L379.925,225.743L379.925,225.743L379.925,225.743L379.925,225.743z M386.81,192.801c0.187,5.463-3.494,12.233-3.851,13.439
					c-3.214-3.296-0.791-5.42,0.351-5.944c-3.603,1.469-4.301,3.969-4.724,5.671c-0.872,3.525,2.075,6.214,0.432,8.305
					c-1.533,1.951-4.14,1.731-4.108-0.61c0.018-1.357,1.241-1.967,1.241-1.967c-4.938,2.164-6.512,10.119-5.451,15.059
					c1.436,6.683,6.931,12.341,15.088,13.278c9.755,1.134,17.234-2.731,17.962-8.16c0.16-1.192-28.622,0.288-2.454-29.407
					c-0.217-0.502-7.103,6.163-11.121,5.673C384.179,207.407,389.894,199.944,386.81,192.801z"/>
			</g>
		</g>
		<g>
			
				<linearGradient id="SVGID_00000109023146259454627830000015841527374587969202_" gradientUnits="userSpaceOnUse" x1="332.3221" y1="293.7828" x2="441.642" y2="483.1306">
				<stop  offset="0" style="stop-color:#D22F02"/>
				<stop  offset="0.2371" style="stop-color:#CC2D02"/>
				<stop  offset="0.5378" style="stop-color:#BD2602"/>
				<stop  offset="0.8716" style="stop-color:#A31C03"/>
				<stop  offset="1" style="stop-color:#971703"/>
			</linearGradient>
			<path style="fill:url(#SVGID_00000109023146259454627830000015841527374587969202_);" d="M443.766,335.038
				c4.023,4.494,6.54,10.891,6.54,17.995c0,13.598-9.214,24.622-20.579,24.622c-11.366,0-21.622-11.064-20.579-24.622
				c2.572-33.441,3.307-54.388-40.056-80.48c12.495,8.82,42.261,26.459,13.229,69.088c-6.558,9.629-9.555,18.007-7.571,34.384
				c-11.112-22.48-4.933-55.022,3.497-68.402c-10.686,13.75-23.602,27.543-33.494,46.003c-9.892,18.46-16.76,41.587-15.35,74.008
				c0.155,3.577,0.539,6.982,1.092,10.249c4.831,33.479,33.628,59.207,68.445,59.207c38.201,0,69.024-30.969,69.169-69.169
				C468.287,381.457,461.392,349.872,443.766,335.038z"/>
			
				<linearGradient id="SVGID_00000049193558417610302470000007772261257401293196_" gradientUnits="userSpaceOnUse" x1="355.0699" y1="360.8174" x2="423.9777" y2="480.1691">
				<stop  offset="0" style="stop-color:#FF6100"/>
				<stop  offset="0.2918" style="stop-color:#FF6D01"/>
				<stop  offset="0.812" style="stop-color:#FF8B02"/>
				<stop  offset="1" style="stop-color:#FF9803"/>
			</linearGradient>
			<path style="fill:url(#SVGID_00000049193558417610302470000007772261257401293196_);" d="M426.183,388.773
				c2.573,2.762,4.183,6.694,4.183,11.06c0,8.357-5.893,15.133-13.162,15.133s-13.829-6.8-13.162-15.133
				C405.688,379.28,405,351.383,387,342.383c7.991,5.421,18.453,24.249-0.115,50.449c-4.194,5.918-6.111,11.067-4.842,21.132
				c-7.107-13.816-3.155-33.817,2.237-42.04c-6.835,8.451-15.095,16.928-21.422,28.274c-6.327,11.346-10.719,25.56-9.818,45.486
				c0.099,2.198,0.37,4.287,0.698,6.299c3.35,20.536,21.507,36.389,43.775,36.389c24.432,0,44.145-19.034,44.239-42.512
				C441.865,417.302,437.456,397.89,426.183,388.773z"/>
			
				<linearGradient id="SVGID_00000170963983391027935350000013889527069473861516_" gradientUnits="userSpaceOnUse" x1="380.355" y1="432.4577" x2="406.2487" y2="477.3069">
				<stop  offset="0.0051" style="stop-color:#FF9803"/>
				<stop  offset="0.9949" style="stop-color:#FAF154"/>
			</linearGradient>
			<path style="fill:url(#SVGID_00000170963983391027935350000013889527069473861516_);" d="M408.6,442.508
				c1.123,1.03,1.826,2.496,1.826,4.125c0,3.117-2.572,5.644-5.744,5.644c-3.172,0-6.035-2.536-5.744-5.644
				c0.718-7.665,0.923-12.467-11.181-18.447c3.488,2.022,11.797,6.065,3.693,15.836c-1.831,2.207-2.667,4.128-2.113,7.881
				c-3.102-5.153-1.377-12.612,0.976-15.679c-2.983,3.152-6.588,6.313-9.349,10.544s-4.678,9.533-4.285,16.964
				c0.043,0.82,0.15,1.6,0.305,2.349c1.349,7.674,9.387,13.571,19.105,13.571c10.663,0,19.267-7.098,19.307-15.855
				C415.444,453.147,413.52,445.908,408.6,442.508z"/>
		</g>
		<g>
			<g>
				
					<linearGradient id="SVGID_00000112595710838820854560000018123208672068687515_" gradientUnits="userSpaceOnUse" x1="363.8743" y1="556.8956" x2="455.2029" y2="715.0812">
					<stop  offset="0" style="stop-color:#D22F02"/>
					<stop  offset="0.2371" style="stop-color:#CC2D02"/>
					<stop  offset="0.5378" style="stop-color:#BD2602"/>
					<stop  offset="0.8716" style="stop-color:#A31C03"/>
					<stop  offset="1" style="stop-color:#971703"/>
				</linearGradient>
				<path style="fill:url(#SVGID_00000112595710838820854560000018123208672068687515_);" d="M460.55,662.616
					c-2.567-9.259-7.413-17.722-10.525-26.812c-3.112-9.09-4.331-19.55,0.258-27.991c-5.881,8.05-8.855,18.177-8.26,28.129
					c-8.073-13.012-8.504-29.414-6.121-44.54c2.383-15.126,7.307-29.798,9.122-45.003c1.371-11.479,0.724-23.708-3.754-34.187
					c2.351,13.037,0.15,26.754-4.411,39.272c-5.19,14.244-13.279,27.221-21.31,40.079c-3.659-13.519-0.644-28.677,7.91-39.766
					c-11.438,8.246-18.124,21.865-20.606,35.745c-2.482,13.88-3.881,26.643-2.002,40.617c-10.315-20.443-17.925-39.384-28.24-59.827
					c4.444,19.648,6.609,39.81,6.437,59.953c-2.356-13.759-7.362-27.06-14.662-38.959c6.667,20.148,1.526,43.743-12.917,59.292
					c-1.387-10.447-0.258-21.219,3.264-31.151c-19.064,18.159-24.858,48.209-15.803,72.931c8.491,23.182,29.755,41.604,54.18,45.193
					c24.425,3.589,50.815-8.645,62.588-30.345C462.688,692.361,464.466,676.742,460.55,662.616z"/>
			</g>
			<g>
				
					<linearGradient id="SVGID_00000096766674981405902190000005204688150663334803_" gradientUnits="userSpaceOnUse" x1="379.001" y1="621.7147" x2="433.1065" y2="715.4282">
					<stop  offset="0" style="stop-color:#FF6100"/>
					<stop  offset="0.0192" style="stop-color:#FF6100"/>
					<stop  offset="0.3179" style="stop-color:#FF6E01"/>
					<stop  offset="0.8638" style="stop-color:#FF8F02"/>
					<stop  offset="1" style="stop-color:#FF9803"/>
				</linearGradient>
				<path style="fill:url(#SVGID_00000096766674981405902190000005204688150663334803_);" d="M436.274,684.346
					c-1.521-5.485-4.392-10.499-6.236-15.884c-1.844-5.385-2.566-11.582,0.153-16.583c-3.484,4.769-5.246,10.769-4.893,16.664
					c-4.783-7.709-5.038-17.425-3.626-26.387c1.412-8.961,4.329-17.653,5.404-26.661c0.812-6.801,0.429-14.045-2.224-20.254
					c1.393,7.724,0.089,15.85-2.613,23.266c-3.074,8.439-7.867,16.126-12.625,23.744c-2.168-8.009-0.381-16.989,4.686-23.559
					c-6.776,4.885-10.737,12.953-12.208,21.176c-1.47,8.223-0.698,16.673,0.416,24.952c-6.111-12.111-12.221-24.221-18.332-36.332
					c2.633,11.64,3.915,23.584,3.814,35.518c-1.396-8.151-4.361-16.031-8.686-23.08c3.95,11.936,0.904,25.915-7.652,35.126
					c-0.822-6.189-0.153-12.571,1.934-18.455c-11.294,10.758-14.727,28.56-9.362,43.206c5.03,13.733,17.628,24.647,32.098,26.774
					c14.47,2.126,30.104-5.121,37.079-17.977C437.541,701.968,438.594,692.715,436.274,684.346z"/>
			</g>
			
				<linearGradient id="SVGID_00000061446902857919390190000016037632078711543971_" gradientUnits="userSpaceOnUse" x1="386.8903" y1="668.2714" x2="413.5835" y2="714.5054">
				<stop  offset="0.0051" style="stop-color:#FF9803"/>
				<stop  offset="0.9949" style="stop-color:#FAF154"/>
			</linearGradient>
			<path style="fill:url(#SVGID_00000061446902857919390190000016037632078711543971_);" d="M415.146,699.171
				c-0.75-2.706-2.167-5.18-3.076-7.836c-0.91-2.657-1.266-5.714,0.075-8.181c-1.719,2.353-2.588,5.313-2.414,8.221
				c-2.36-3.803-2.486-8.597-1.789-13.018c0.697-4.421,2.135-8.709,2.666-13.153c0.401-3.355,0.212-6.929-1.097-9.992
				c0.687,3.81,0.044,7.819-1.289,11.478c-1.517,4.163-3.881,7.956-6.228,11.714c-1.069-3.951-0.188-8.382,2.312-11.623
				c-3.343,2.41-5.297,6.391-6.023,10.447c-0.725,4.057-0.344,8.226,0.205,12.31c-3.015-5.975-6.029-11.95-9.044-17.925
				c1.299,5.743,1.932,11.636,1.882,17.523c-0.689-4.022-2.152-7.909-4.285-11.387c1.948,5.889,0.446,12.785-3.775,17.33
				c-0.405-3.053-0.076-6.202,0.954-9.105c-5.572,5.307-7.265,14.09-4.619,21.316c2.482,6.776,8.697,12.16,15.836,13.209
				c7.139,1.049,14.852-2.527,18.293-8.869C415.771,707.865,416.291,703.3,415.146,699.171z"/>
		</g>
		<g>
			
				<linearGradient id="SVGID_00000157285414520573128590000017733971103811647372_" gradientUnits="userSpaceOnUse" x1="594.8243" y1="73.2803" x2="694.1622" y2="245.3385">
				<stop  offset="0" style="stop-color:#D22F02"/>
				<stop  offset="0.2371" style="stop-color:#CC2D02"/>
				<stop  offset="0.5378" style="stop-color:#BD2602"/>
				<stop  offset="0.8716" style="stop-color:#A31C03"/>
				<stop  offset="1" style="stop-color:#971703"/>
			</linearGradient>
			<path style="fill:url(#SVGID_00000157285414520573128590000017733971103811647372_);" d="M674.694,65.982
				c4.792,3.621,9.756,10.42,13.078,19.722c2.305,6.453-5.421,10.82-10.024,5.743c-0.065-0.072-0.132-0.145-0.198-0.217
				c-20.053-21.778-27.391-45.174-18.347-55.118c-10.95,12.039-22.595,26.507-23.761,43.442c-0.426,6.182,0.948,12.053,2.699,17.848
				c-11.84-8.226-26.817-6.744-32.571-6.402c23.947,2.517,31.297,17.575,28.552,35.69c-1.151,7.599-8.789,9.97-12.874,8.558
				c-0.031-0.011-0.062-0.021-0.094-0.032c-10.356-3.613-11.279-20.964-5.514-31.166c-0.001-0.002-0.001-0.001-0.002-0.002
				c-43.889,45.829-30.373,97.952-29.45,103.046c5.546,30.592,32.41,53.76,64.649,53.553c34.847-0.223,63.084-28.256,64.752-63.064
				C718.201,143.063,701.812,84.694,674.694,65.982z"/>
			
				<linearGradient id="SVGID_00000027577534948609469120000006786049768284270244_" gradientUnits="userSpaceOnUse" x1="613.2626" y1="131.6067" x2="678.8409" y2="245.1916">
				<stop  offset="0" style="stop-color:#FF6100"/>
				<stop  offset="0.2918" style="stop-color:#FF6D01"/>
				<stop  offset="0.812" style="stop-color:#FF8B02"/>
				<stop  offset="1" style="stop-color:#FF9803"/>
			</linearGradient>
			<path style="fill:url(#SVGID_00000027577534948609469120000006786049768284270244_);" d="M666.542,126.633
				c3.275,2.385,6.668,6.863,8.939,12.99c1.576,4.251-3.705,7.127-6.851,3.783c-0.045-0.048-0.09-0.095-0.136-0.143
				c-13.706-14.344-18.721-29.755-12.54-36.304c-7.484,7.93-15.443,17.46-16.24,28.613c-0.291,4.072,0.648,7.939,1.845,11.756
				c-8.092-5.418-18.329-4.442-22.261-4.217c16.367,1.658,21.39,11.576,19.514,23.508c-0.787,5.005-6.007,6.567-8.799,5.637
				c-0.021-0.007-0.043-0.014-0.064-0.021c-7.078-2.38-9.857-15.151-3.769-20.528c-0.001-0.001,0,0,0,0
				c-27.222,35.584-20.76,64.517-20.129,67.872c3.791,20.15,22.151,35.41,44.186,35.274c23.817-0.147,43.116-18.611,44.256-41.538
				C696.278,177.404,685.076,138.959,666.542,126.633z"/>
			
				<linearGradient id="SVGID_00000031184127831252558020000007513702912377736624_" gradientUnits="userSpaceOnUse" x1="631.7107" y1="189.9277" x2="663.5464" y2="245.0687">
				<stop  offset="0.0051" style="stop-color:#FF9803"/>
				<stop  offset="0.9949" style="stop-color:#FAF154"/>
			</linearGradient>
			<path style="fill:url(#SVGID_00000031184127831252558020000007513702912377736624_);" d="M658.39,187.285
				c1.758,1.149,3.58,3.307,4.799,6.258c0.846,2.048-1.989,3.434-3.678,1.822c-0.024-0.023-0.048-0.046-0.073-0.069
				c-7.359-6.911-10.051-14.335-6.732-17.491c-4.018,3.82-8.291,8.412-8.719,13.785c-0.156,1.962,0.348,3.825,0.99,5.664
				c-4.345-2.611-9.84-2.14-11.952-2.031c8.787,0.799,11.484,5.577,10.477,11.326c-0.422,2.411-3.225,3.164-4.724,2.716
				c-0.011-0.003-0.023-0.007-0.034-0.01c-3.8-1.146-5.292-7.299-2.023-9.89c0-0.001,0,0,0,0
				c-14.615,17.144-11.146,31.083-10.807,32.7c2.035,9.708,11.893,17.06,23.722,16.994c12.787-0.071,23.148-8.967,23.76-20.013
				C674.355,211.746,668.341,193.223,658.39,187.285z"/>
		</g>
		<g>
			
				<linearGradient id="SVGID_00000044178283458570831610000017493205502553189532_" gradientUnits="userSpaceOnUse" x1="601.4802" y1="308.387" x2="698.7829" y2="476.9201">
				<stop  offset="0" style="stop-color:#D22F02"/>
				<stop  offset="0.2371" style="stop-color:#CC2D02"/>
				<stop  offset="0.5378" style="stop-color:#BD2602"/>
				<stop  offset="0.8716" style="stop-color:#A31C03"/>
				<stop  offset="1" style="stop-color:#971703"/>
			</linearGradient>
			<path style="fill:url(#SVGID_00000044178283458570831610000017493205502553189532_);" d="M687.854,401.364
				c4.721-8.589,9.254-17.683,9.701-27.474c0.238-5.223-0.831-10.73-4.184-14.742c-3.352-4.012-9.344-6.058-14.061-3.803
				c5.659,0.092,7.999,8.822,3.86,12.682c-4.139,3.86-11.376,2.475-15.117-1.772c-3.74-4.247-4.573-10.373-3.999-16.004
				c1.061-10.407,6.214-19.868,10.213-29.535c3.999-9.667,6.898-20.633,3.335-30.469c-3.563-9.836-16.005-16.846-24.941-11.407
				c4.459-1.765,9.826,0.49,12.598,4.403s3.291,9.064,2.511,13.796c-2.383,14.465-15.141,24.753-21.605,37.911
				c-5.003,10.185-6.065,22.245-2.919,33.148c1.647,5.71,4.384,11.061,6.002,16.779c1.972,6.968,2.117,15.01-3.309,20.537
				c-3.067,3.125-7.682,4.374-11.716,2.67c-6.049-2.555-4.57-9.997-8.547-14.878c-5.045-6.192-7.756-7.061-15.135-8.255
				c6.601,2.206,10.068,10.385,8.363,17.133c-1.706,6.747-6.223,12.367-9.559,18.475c-10.141,18.566-8.449,43.311,5.155,59.512
				c13.604,16.201,38.667,21.998,57.461,12.286c18.794-9.712,28.508-34.614,20.145-54.047l0,0
				c-3.695,8.335-16.136,5.841-16.333-3.274c-0.049-2.283,0.133-4.572,0.532-6.784C678.044,418.606,683.133,409.953,687.854,401.364
				z"/>
			
				<linearGradient id="SVGID_00000181079597501836049250000015754578947894668987_" gradientUnits="userSpaceOnUse" x1="630.1927" y1="417.7473" x2="667.9755" y2="483.1889">
				<stop  offset="0" style="stop-color:#FF6100"/>
				<stop  offset="0.2918" style="stop-color:#FF6D01"/>
				<stop  offset="0.812" style="stop-color:#FF8B02"/>
				<stop  offset="1" style="stop-color:#FF9803"/>
			</linearGradient>
			<path style="fill:url(#SVGID_00000181079597501836049250000015754578947894668987_);" d="M640.142,424.828
				c-0.045,2.947,0.388,5.947-0.383,8.786c-0.821,3.022-3.706,5.861-6.754,5.141c-2.657-0.627-4.023-3.461-5.527-5.739
				c-1.504-2.278-4.455-4.404-6.752-2.931c2.13-1.366,4.036,6.983,3.956,7.977c-0.3,3.724-3.171,7.07-4.83,10.257
				c-4.987,9.615-3.872,22.163,2.917,30.653c6.045,7.559,15.843,12.476,25.633,12.06c3.96-0.166,7.857-1.235,11.367-3.117
				c10.161-5.447,15.715-18.549,11.994-29.101c1.026,2.91-5.704,1.789-6.874,0.284c-5.604-7.218,5.81-19.833,8.322-25.895
				c1.723-4.157,2.441-8.892,1.072-13.178c-1.369-4.286-5.126-7.956-9.607-8.368c2.001,1.372,2.249,4.671,0.475,6.327
				c-1.773,1.656-5.048,1.182-6.28-0.908c-1.272-2.158-0.354-5.003-1.25-7.342c-1.002-2.617-4.21-3.938-6.952-3.364
				c-2.742,0.574-4.968,2.676-6.354,5.111c-1.958,3.438-4.003,8.781-4.157,12.78C640.15,424.448,640.145,424.638,640.142,424.828z"
				/>
			
				<linearGradient id="SVGID_00000088832766065866458150000003773783887846696631_" gradientUnits="userSpaceOnUse" x1="637.5023" y1="454.9401" x2="651.1818" y2="478.6336">
				<stop  offset="0" style="stop-color:#FF9803"/>
				<stop  offset="1" style="stop-color:#FAF154"/>
			</linearGradient>
			<path style="fill:url(#SVGID_00000088832766065866458150000003773783887846696631_);" d="M650.611,464.386
				c-0.024-0.561,0.006-1.123,0.088-1.67c0.103-0.69,0.276-1.362,0.503-2.023c0.063-0.183,0.143-0.389,0.235-0.61
				c1.224-2.941,0.866-6.306-0.923-8.941l0,0c-0.756-1.113-2.681-1.367-4.403-0.698c-2.378,0.925-5.471,2.316-7.745,4.59
				c-4.685,4.685-6.936,9.917-6.094,15.784c0.165,1.151,0.455,2.204,0.92,3.039c2.128,3.819,6.536,7.169,11.226,7.177
				c1.874,0.009,3.747-0.568,5.313-1.577c3.179-2.048,5.227-5.736,5.276-9.509c0.011-0.818-0.074-1.635-0.255-2.435
				c-0.145-0.639-0.787-1.08-1.422-0.918C652.207,466.882,650.676,466.023,650.611,464.386z"/>
			
				<linearGradient id="SVGID_00000047048998024434364690000002787661383120660638_" gradientUnits="userSpaceOnUse" x1="753.6375" y1="197.0511" x2="796.0118" y2="232.9227" gradientTransform="matrix(0.9949 -0.1011 0.1011 0.9949 -110.0165 169.4492)">
				<stop  offset="0" style="stop-color:#D22F02"/>
				<stop  offset="0.2371" style="stop-color:#CC2D02"/>
				<stop  offset="0.5378" style="stop-color:#BD2602"/>
				<stop  offset="0.8716" style="stop-color:#A31C03"/>
				<stop  offset="1" style="stop-color:#971703"/>
			</linearGradient>
			<path style="fill:url(#SVGID_00000047048998024434364690000002787661383120660638_);" d="M671.188,272.554
				c5.881,4.444,17.403,15.992,12.231,34.949c-3.032,11.115,0.925,22.953,10.251,29.717l0.326,0.236
				C681.685,324.563,708.47,298.28,671.188,272.554z"/>
			
				<linearGradient id="SVGID_00000065768859285817694750000016795842803684388485_" gradientUnits="userSpaceOnUse" x1="705.119" y1="382.9428" x2="726.0895" y2="405.5727" gradientTransform="matrix(0.802 -0.5973 0.5973 0.802 -177.7349 475.7747)">
				<stop  offset="0" style="stop-color:#D22F02"/>
				<stop  offset="0.2371" style="stop-color:#CC2D02"/>
				<stop  offset="0.5378" style="stop-color:#BD2602"/>
				<stop  offset="0.8716" style="stop-color:#A31C03"/>
				<stop  offset="1" style="stop-color:#971703"/>
			</linearGradient>
			<path style="fill:url(#SVGID_00000065768859285817694750000016795842803684388485_);" d="M637.02,360.406
				c-0.447-4.571-2.982-9.074-6.816-11.603c-3.834-2.529-10.054-1.734-11.774,2.524c1.107-1.791,3.588-2.404,5.591-1.753
				c2.002,0.651,3.536,2.329,4.502,4.199c2.955,5.718,1.16,12.687,2.335,19.015c0.307,1.655,0.829,3.268,1.539,4.794
				c2.155,4.636,8.223,5.826,12.085,2.477l0,0l0,0C644.482,380.058,638.851,379.142,637.02,360.406z"/>
		</g>
		<g>
			<g>
				
					<linearGradient id="SVGID_00000022529159872178201360000011092977795975371170_" gradientUnits="userSpaceOnUse" x1="686.9631" y1="556.3673" x2="591.8757" y2="721.0635" gradientTransform="matrix(-1 0 0 1 1252.1871 0)">
					<stop  offset="0" style="stop-color:#D22F02"/>
					<stop  offset="0.2371" style="stop-color:#CC2D02"/>
					<stop  offset="0.5378" style="stop-color:#BD2602"/>
					<stop  offset="0.8716" style="stop-color:#A31C03"/>
					<stop  offset="1" style="stop-color:#971703"/>
				</linearGradient>
				<path style="fill:url(#SVGID_00000022529159872178201360000011092977795975371170_);" d="M567.554,644.422
					c1.798,3.514,11.148,8.75,12.946,12.264C571.5,586.5,624.75,522,624.75,522c-9.167,26.5-0.533,55.094,9,70
					c13.75,21.5,21.007,28.362,28.257,49.5c7.149,20.845,6.349,39.175-0.398,60.154c-4.952,15.4-14.995,30.714-30.553,35.143
					c-19.489,5.547-43.389-0.797-55.78-25.797C566.277,692.844,565.069,664.532,567.554,644.422z"/>
				
					<linearGradient id="SVGID_00000047768476388278045960000012241429231282913950_" gradientUnits="userSpaceOnUse" x1="680.7498" y1="595.1317" x2="609.5518" y2="718.4501" gradientTransform="matrix(-1 0 0 1 1252.1871 0)">
					<stop  offset="0" style="stop-color:#FF6100"/>
					<stop  offset="0.2918" style="stop-color:#FF6D01"/>
					<stop  offset="0.812" style="stop-color:#FF8B02"/>
					<stop  offset="1" style="stop-color:#FF9803"/>
				</linearGradient>
				<path style="fill:url(#SVGID_00000047768476388278045960000012241429231282913950_);" d="M576,663.94
					c4.807,6.024,16.135,7.015,17.392,9.473C582.906,616.413,611.5,572,611.5,572.001c2.432,24.659,19.183,43.57,31,64.685
					c12.207,21.811,16,46.064,6.711,68.064c-4.4,10.42-12.151,19.023-23.03,22.12c-14.94,4.253-32.759-2.97-41.181-15.87
					c-7.018-10.75-8.668-22.698-9-35.253C575.944,673.615,575.998,667.072,576,663.94z"/>
				
					<linearGradient id="SVGID_00000013158680967187458850000005695208288401536429_" gradientUnits="userSpaceOnUse" x1="659.9509" y1="641.2797" x2="619.6678" y2="711.0521" gradientTransform="matrix(-1 0 0 1 1252.1871 0)">
					<stop  offset="0" style="stop-color:#FF9803"/>
					<stop  offset="1" style="stop-color:#FAF154"/>
				</linearGradient>
				<path style="fill:url(#SVGID_00000013158680967187458850000005695208288401536429_);" d="M596.833,683.167
					c0.716,1.401,6.95,1.933,7.667,3.333c-2.833-29.814,10.464-58.342,10.464-58.342c-2.156,8.64,1.139,17.717,5.501,25.48
					c4.362,7.763,9.879,14.983,12.768,23.406c2.849,8.307,2.938,17.534,0.25,25.894c-1.973,6.137-5.9,12.531-12.176,14.004
					c-9.473,2.224-18.516-3.402-21.807-10.776C596.209,698.793,595.843,691.181,596.833,683.167z"/>
			</g>
			<g>
				<g>
					
						<linearGradient id="SVGID_00000003090175356418261730000017644219449402155668_" gradientUnits="userSpaceOnUse" x1="675.017" y1="525.9277" x2="639.9915" y2="586.5936" gradientTransform="matrix(-1 0 0 1 1304.9989 0)">
						<stop  offset="0" style="stop-color:#D22F02"/>
						<stop  offset="0.2371" style="stop-color:#CC2D02"/>
						<stop  offset="0.5378" style="stop-color:#BD2602"/>
						<stop  offset="0.8716" style="stop-color:#A31C03"/>
						<stop  offset="1" style="stop-color:#971703"/>
					</linearGradient>
					<path style="fill:url(#SVGID_00000003090175356418261730000017644219449402155668_);" d="M652.595,592.759
						c0.986-7.586-3.047-14.912-7.706-20.98c-4.659-6.068-10.179-11.689-13.014-18.795c-4.837-12.125-0.008-27.344,10.935-34.463
						c-4.233,3.375-5.364,9.562-4.093,14.824c1.271,5.263,4.514,9.805,7.818,14.094c3.304,4.289,6.795,8.569,8.705,13.634
						c3.971,10.527,0.458,22.239-3.061,32.926"/>
				</g>
				<g>
					
						<linearGradient id="SVGID_00000167361957275527440950000007466885696282834329_" gradientUnits="userSpaceOnUse" x1="657.5615" y1="580.3385" x2="717.6287" y2="684.378">
						<stop  offset="0" style="stop-color:#D22F02"/>
						<stop  offset="0.2371" style="stop-color:#CC2D02"/>
						<stop  offset="0.5378" style="stop-color:#BD2602"/>
						<stop  offset="0.8716" style="stop-color:#A31C03"/>
						<stop  offset="1" style="stop-color:#971703"/>
					</linearGradient>
					<path style="fill:url(#SVGID_00000167361957275527440950000007466885696282834329_);" d="M697.25,661.197
						c6.341-11.085,5.416-24.862,2.67-37.334c-2.746-12.472-7.139-24.768-7.152-37.539c-0.013-12.771,5.641-26.675,17.383-31.697
						c-10.586-1.896-20.624,7.031-24.07,17.22c-3.446,10.188-2.071,21.278-1.166,31.995c0.451,5.348,0.233,11.821-4.354,14.607
						c-5.335,3.24-12.887-1.724-13.971-7.871c-1.847-10.48,5.6-18.109,5.6-18.109c-11.46,5.947-13.169,19.737-9.813,30.879
						c2.148,7.13,5.652,13.743,8.159,20.739c2.508,7.001,3.801,14.649,3.959,22.064c0.315,14.732-3.297,29.774-10.083,42.848
						c8.527-7.579,17.137-15.218,27.076-20.819c9.939-5.6,21.446-9.075,32.762-7.626
						C718.294,670.869,708.336,663.729,697.25,661.197z"/>
				</g>
				<g>
					
						<linearGradient id="SVGID_00000094618935850495663810000009841226569335465092_" gradientUnits="userSpaceOnUse" x1="681.6702" y1="623.1612" x2="698.2896" y2="651.9468">
						<stop  offset="0.0051" style="stop-color:#FF9803"/>
						<stop  offset="0.9949" style="stop-color:#FAF154"/>
					</linearGradient>
					<path style="fill:url(#SVGID_00000094618935850495663810000009841226569335465092_);" d="M695.021,637.755
						c-0.588-6.662-2.875-13.041-5.143-19.333c-0.211,5.011-5.843,8.953-10.63,7.567c6.323,8.986,10.128,19.73,10.833,30.697
						C694.315,651.508,695.609,644.417,695.021,637.755z"/>
				</g>
			</g>
		</g>
	</g>
</g>
<g id="DESIGNED_BY_FREEPIK">
	<g>
		<path style="fill:#D22F02;" d="M289.717,771.074c-0.393,0-0.695,0.136-0.907,0.408c-0.213,0.272-0.318,0.674-0.318,1.206v3.827
			c-0.488-0.53-0.988-0.926-1.501-1.183c-0.513-0.255-1.143-0.384-1.89-0.384c-1.292,0-2.333,0.453-3.125,1.357
			c-0.792,0.905-1.188,2.17-1.188,3.791c0,0.766,0.1,1.478,0.299,2.137c0.199,0.659,0.492,1.232,0.879,1.719
			c0.386,0.487,0.843,0.863,1.372,1.126c0.529,0.263,1.103,0.393,1.725,0.393c0.469,0,0.9-0.063,1.296-0.195
			c0.396-0.129,0.764-0.319,1.102-0.57c0.339-0.249,0.682-0.574,1.031-0.973v0.257c0,0.475,0.115,0.84,0.346,1.098
			c0.232,0.256,0.525,0.384,0.879,0.384c0.361,0,0.655-0.124,0.883-0.37c0.229-0.247,0.342-0.617,0.342-1.111v-11.436
			c0-0.488-0.106-0.855-0.318-1.106C290.412,771.199,290.11,771.074,289.717,771.074z M288.012,782.021
			c-0.225,0.489-0.525,0.854-0.902,1.091c-0.377,0.238-0.793,0.357-1.249,0.357c-0.449,0-0.864-0.126-1.244-0.377
			c-0.38-0.249-0.679-0.621-0.897-1.115c-0.218-0.494-0.328-1.092-0.328-1.795c0-0.665,0.103-1.249,0.309-1.753
			c0.206-0.504,0.495-0.89,0.869-1.158c0.374-0.268,0.798-0.403,1.273-0.403c0.456,0,0.875,0.131,1.258,0.393
			c0.383,0.264,0.687,0.644,0.912,1.14c0.225,0.498,0.337,1.092,0.337,1.782C288.349,780.916,288.237,781.53,288.012,782.021z"/>
		<path style="fill:#D22F02;" d="M301.503,780.549c0.373-0.194,0.56-0.616,0.56-1.27c0-0.701-0.182-1.393-0.542-2.07
			c-0.36-0.677-0.904-1.23-1.63-1.656c-0.724-0.429-1.593-0.641-2.606-0.641c-0.779,0-1.488,0.124-2.127,0.374
			c-0.64,0.251-1.178,0.609-1.615,1.078c-0.436,0.469-0.768,1.03-0.997,1.687c-0.228,0.654-0.341,1.365-0.341,2.132
			c0,1.627,0.462,2.916,1.386,3.865c0.924,0.949,2.22,1.425,3.884,1.425c0.729,0,1.373-0.095,1.933-0.285
			c0.561-0.19,1.025-0.429,1.397-0.717c0.37-0.288,0.646-0.589,0.832-0.902c0.183-0.314,0.275-0.587,0.275-0.821
			c0-0.267-0.083-0.471-0.248-0.617c-0.164-0.146-0.379-0.22-0.645-0.22c-0.248,0-0.438,0.058-0.571,0.171
			c-0.324,0.304-0.586,0.545-0.788,0.723c-0.203,0.178-0.424,0.345-0.665,0.499c-0.241,0.156-0.489,0.269-0.746,0.343
			c-0.257,0.072-0.54,0.107-0.85,0.107c-0.462,0-0.885-0.112-1.268-0.341c-0.383-0.228-0.69-0.566-0.921-1.017
			c-0.232-0.449-0.35-0.969-0.356-1.557h5.071C300.604,780.839,301.13,780.741,301.503,780.549z M294.855,779.366
			c0.089-0.874,0.34-1.535,0.755-1.982c0.414-0.446,0.945-0.669,1.591-0.669c0.678,0,1.223,0.22,1.638,0.66
			c0.414,0.44,0.655,1.103,0.717,1.99H294.855z"/>
		<path style="fill:#D22F02;" d="M310.188,779.85c-0.51-0.271-1.167-0.506-1.97-0.703c-0.679-0.165-1.209-0.304-1.596-0.417
			c-0.387-0.113-0.694-0.258-0.922-0.433c-0.228-0.174-0.341-0.396-0.341-0.67c0-0.298,0.155-0.546,0.465-0.744
			c0.31-0.201,0.699-0.3,1.168-0.3c0.457,0,0.817,0.075,1.083,0.227c0.267,0.152,0.496,0.356,0.693,0.608
			c0.241,0.304,0.455,0.531,0.641,0.683c0.187,0.153,0.413,0.229,0.679,0.229c0.368,0,0.651-0.097,0.85-0.285
			c0.199-0.19,0.298-0.435,0.298-0.732c0-0.273-0.093-0.552-0.28-0.837c-0.186-0.284-0.458-0.544-0.816-0.777
			c-0.357-0.234-0.804-0.423-1.34-0.561c-0.534-0.141-1.138-0.21-1.809-0.21c-0.855,0-1.585,0.138-2.188,0.414
			c-0.605,0.275-1.063,0.645-1.374,1.106c-0.311,0.463-0.465,0.954-0.465,1.473c0,0.582,0.168,1.073,0.503,1.473
			c0.336,0.398,0.783,0.721,1.344,0.963c0.56,0.244,1.287,0.477,2.18,0.698c0.792,0.19,1.36,0.391,1.705,0.6
			c0.346,0.209,0.518,0.54,0.518,0.996c0,0.298-0.166,0.562-0.498,0.794c-0.333,0.23-0.758,0.347-1.277,0.347
			c-0.641,0-1.145-0.114-1.515-0.342c-0.371-0.229-0.689-0.572-0.956-1.036c-0.132-0.239-0.272-0.427-0.418-0.56
			c-0.146-0.133-0.354-0.199-0.626-0.199c-0.311,0-0.567,0.102-0.77,0.304c-0.204,0.202-0.304,0.445-0.304,0.73
			c0,0.432,0.158,0.859,0.475,1.288c0.316,0.426,0.807,0.783,1.472,1.067c0.665,0.285,1.463,0.428,2.394,0.428
			c0.975,0,1.803-0.131,2.483-0.393c0.681-0.263,1.196-0.649,1.543-1.159c0.349-0.51,0.522-1.123,0.522-1.839
			c0-0.475-0.131-0.896-0.393-1.267C311.084,780.443,310.697,780.121,310.188,779.85z"/>
		<path style="fill:#D22F02;" d="M314.39,771.188c-0.348,0-0.654,0.118-0.916,0.356c-0.263,0.238-0.394,0.539-0.394,0.907
			c0,0.406,0.128,0.72,0.385,0.94c0.256,0.222,0.565,0.333,0.926,0.333c0.348,0,0.649-0.113,0.902-0.338
			c0.253-0.225,0.381-0.536,0.381-0.936c0-0.412-0.13-0.725-0.39-0.94C315.023,771.295,314.726,771.188,314.39,771.188z"/>
		<path style="fill:#D22F02;" d="M314.361,774.93c-0.38,0-0.689,0.13-0.926,0.39c-0.238,0.26-0.356,0.647-0.356,1.158v7.418
			c0,0.507,0.118,0.896,0.356,1.169c0.237,0.273,0.546,0.408,0.926,0.408s0.693-0.133,0.94-0.398
			c0.247-0.266,0.371-0.659,0.371-1.179v-7.493c0-0.462-0.124-0.823-0.371-1.083C315.054,775.06,314.742,774.93,314.361,774.93z"/>
		<path style="fill:#D22F02;" d="M325.787,774.93c-0.348,0-0.633,0.124-0.855,0.37c-0.222,0.248-0.332,0.596-0.332,1.045v0.352
			c-0.462-0.602-0.963-1.043-1.5-1.326c-0.539-0.28-1.175-0.422-1.909-0.422c-0.615,0-1.178,0.109-1.691,0.327
			c-0.513,0.219-0.965,0.543-1.358,0.974c-0.392,0.431-0.694,0.959-0.907,1.587c-0.212,0.626-0.317,1.33-0.317,2.108
			c0,1.045,0.173,1.965,0.522,2.764c0.348,0.798,0.847,1.418,1.495,1.861c0.65,0.443,1.408,0.665,2.275,0.665
			c0.721,0,1.344-0.146,1.866-0.436c0.523-0.291,0.983-0.716,1.382-1.274c-0.013,0.85-0.031,1.465-0.057,1.849
			s-0.112,0.743-0.261,1.077c-0.148,0.336-0.408,0.598-0.779,0.784c-0.371,0.188-0.892,0.28-1.563,0.28
			c-0.329,0-0.621-0.031-0.874-0.09c-0.253-0.061-0.47-0.152-0.65-0.274c-0.18-0.124-0.345-0.272-0.494-0.447
			c-0.149-0.174-0.293-0.348-0.432-0.519c-0.285-0.335-0.618-0.503-0.997-0.503c-0.303,0-0.563,0.1-0.778,0.3
			c-0.216,0.198-0.324,0.457-0.324,0.773c0,0.418,0.191,0.825,0.57,1.221c0.381,0.395,0.922,0.718,1.624,0.969
			c0.703,0.25,1.501,0.375,2.393,0.375c0.976,0,1.791-0.098,2.446-0.295c0.655-0.195,1.185-0.497,1.59-0.901
			c0.406-0.405,0.701-0.919,0.883-1.538c0.184-0.621,0.277-1.362,0.277-2.224v-7.531c0-0.614-0.083-1.085-0.248-1.411
			C326.619,775.094,326.287,774.93,325.787,774.93z M324.144,781.916c-0.241,0.465-0.553,0.813-0.936,1.045
			c-0.383,0.231-0.79,0.347-1.22,0.347c-0.728,0-1.322-0.269-1.781-0.808c-0.459-0.538-0.688-1.333-0.688-2.384
			c0-1.038,0.223-1.84,0.669-2.402c0.446-0.563,1.039-0.846,1.78-0.846c0.76,0,1.373,0.295,1.838,0.884
			c0.466,0.588,0.698,1.412,0.698,2.469C324.504,780.886,324.383,781.45,324.144,781.916z"/>
		<path style="fill:#D22F02;" d="M337.553,776.639c-0.265-0.543-0.668-0.964-1.206-1.262c-0.539-0.298-1.149-0.447-1.833-0.447
			c-0.703,0-1.325,0.142-1.866,0.423c-0.542,0.282-1.04,0.724-1.496,1.325v-0.313c0-0.31-0.055-0.573-0.166-0.789
			c-0.111-0.214-0.259-0.375-0.441-0.483c-0.184-0.108-0.39-0.162-0.619-0.162c-0.373,0-0.667,0.122-0.883,0.365
			c-0.215,0.244-0.323,0.613-0.323,1.107v7.493c0,0.507,0.121,0.896,0.361,1.169c0.241,0.273,0.547,0.408,0.922,0.408
			c0.386,0,0.701-0.131,0.945-0.393c0.243-0.263,0.365-0.658,0.365-1.184v-3.248c0-1.058,0.063-1.778,0.19-2.165
			c0.177-0.481,0.456-0.859,0.836-1.136c0.38-0.275,0.801-0.413,1.263-0.413c0.71,0,1.183,0.228,1.42,0.68
			c0.237,0.452,0.356,1.107,0.356,1.961v4.321c0,0.507,0.12,0.896,0.361,1.169c0.241,0.273,0.554,0.408,0.94,0.408
			c0.38,0,0.688-0.133,0.926-0.398c0.238-0.266,0.357-0.659,0.357-1.179v-4.824c0-0.57-0.026-1.038-0.077-1.406
			C337.835,777.299,337.725,776.956,337.553,776.639z"/>
		<path style="fill:#D22F02;" d="M348.503,780.549c0.374-0.194,0.561-0.616,0.561-1.27c0-0.701-0.181-1.393-0.542-2.07
			c-0.361-0.677-0.904-1.23-1.63-1.656c-0.725-0.429-1.593-0.641-2.606-0.641c-0.779,0-1.489,0.124-2.128,0.374
			c-0.639,0.251-1.178,0.609-1.614,1.078c-0.437,0.469-0.77,1.03-0.998,1.687c-0.228,0.654-0.342,1.365-0.342,2.132
			c0,1.627,0.463,2.916,1.386,3.865c0.925,0.949,2.22,1.425,3.885,1.425c0.728,0,1.373-0.095,1.933-0.285
			c0.561-0.19,1.025-0.429,1.396-0.717c0.371-0.288,0.647-0.589,0.832-0.902c0.184-0.314,0.275-0.587,0.275-0.821
			c0-0.267-0.082-0.471-0.247-0.617c-0.165-0.146-0.38-0.22-0.646-0.22c-0.247,0-0.437,0.058-0.57,0.171
			c-0.323,0.304-0.586,0.545-0.788,0.723c-0.204,0.178-0.425,0.345-0.665,0.499c-0.242,0.156-0.49,0.269-0.746,0.343
			c-0.257,0.072-0.541,0.107-0.851,0.107c-0.462,0-0.885-0.112-1.267-0.341c-0.384-0.228-0.691-0.566-0.921-1.017
			c-0.232-0.449-0.35-0.969-0.356-1.557h5.071C347.605,780.839,348.13,780.741,348.503,780.549z M341.855,779.366
			c0.089-0.874,0.339-1.535,0.754-1.982c0.415-0.446,0.945-0.669,1.592-0.669c0.677,0,1.223,0.22,1.638,0.66
			c0.415,0.44,0.654,1.103,0.717,1.99H341.855z"/>
		<path style="fill:#D22F02;" d="M358.722,771.074c-0.393,0-0.696,0.136-0.907,0.408c-0.212,0.272-0.319,0.674-0.319,1.206v3.827
			c-0.487-0.53-0.987-0.926-1.5-1.183c-0.513-0.255-1.143-0.384-1.89-0.384c-1.292,0-2.333,0.453-3.125,1.357
			c-0.792,0.905-1.187,2.17-1.187,3.791c0,0.766,0.1,1.478,0.299,2.137c0.199,0.659,0.492,1.232,0.878,1.719
			c0.386,0.487,0.844,0.863,1.373,1.126c0.528,0.263,1.102,0.393,1.724,0.393c0.468,0,0.901-0.063,1.296-0.195
			c0.396-0.129,0.763-0.319,1.102-0.57c0.339-0.249,0.682-0.574,1.03-0.973v0.257c0,0.475,0.116,0.84,0.347,1.098
			c0.232,0.256,0.524,0.384,0.879,0.384c0.361,0,0.655-0.124,0.883-0.37c0.228-0.247,0.342-0.617,0.342-1.111v-11.436
			c0-0.488-0.106-0.855-0.318-1.106C359.417,771.199,359.114,771.074,358.722,771.074z M357.017,782.021
			c-0.224,0.489-0.525,0.854-0.902,1.091c-0.376,0.238-0.793,0.357-1.249,0.357c-0.449,0-0.864-0.126-1.243-0.377
			c-0.381-0.249-0.68-0.621-0.898-1.115c-0.219-0.494-0.327-1.092-0.327-1.795c0-0.665,0.102-1.249,0.308-1.753
			c0.206-0.504,0.496-0.89,0.869-1.158c0.374-0.268,0.798-0.403,1.272-0.403c0.456,0,0.875,0.131,1.259,0.393
			c0.383,0.264,0.687,0.644,0.912,1.14c0.225,0.498,0.337,1.092,0.337,1.782C357.354,780.916,357.242,781.53,357.017,782.021z"/>
		<path style="fill:#D22F02;" d="M375.242,777.338c-0.358-0.775-0.862-1.367-1.51-1.777c-0.65-0.407-1.404-0.611-2.266-0.611
			c-0.747,0-1.375,0.135-1.881,0.403c-0.507,0.268-1.004,0.657-1.491,1.163v-3.96c0-0.476-0.108-0.84-0.323-1.098
			c-0.215-0.256-0.522-0.384-0.921-0.384c-0.379,0-0.676,0.135-0.889,0.403c-0.211,0.268-0.317,0.666-0.317,1.191v11.322
			c0,0.487,0.109,0.856,0.328,1.107c0.218,0.25,0.511,0.374,0.879,0.374c0.361,0,0.659-0.124,0.892-0.374
			c0.234-0.251,0.352-0.62,0.352-1.107v-0.257c0.285,0.329,0.515,0.577,0.689,0.741c0.174,0.165,0.385,0.325,0.631,0.479
			c0.247,0.156,0.546,0.28,0.898,0.375c0.35,0.096,0.726,0.143,1.125,0.143c0.652,0,1.249-0.131,1.79-0.393
			c0.541-0.263,1.001-0.636,1.382-1.117c0.379-0.481,0.669-1.049,0.869-1.704c0.199-0.656,0.299-1.375,0.299-2.16
			C375.779,779.033,375.599,778.112,375.242,777.338z M372.468,782.619c-0.471,0.567-1.034,0.851-1.686,0.851
			c-0.766,0-1.385-0.278-1.857-0.833c-0.472-0.554-0.708-1.346-0.708-2.378c0-0.703,0.111-1.311,0.332-1.819
			c0.222-0.51,0.526-0.899,0.912-1.168c0.386-0.268,0.827-0.403,1.32-0.403c0.481,0,0.902,0.135,1.264,0.403
			c0.361,0.269,0.639,0.65,0.835,1.145c0.197,0.493,0.294,1.083,0.294,1.767C373.175,781.24,372.939,782.052,372.468,782.619z"/>
		<path style="fill:#D22F02;" d="M384.844,775.087c-0.181-0.106-0.368-0.157-0.565-0.157c-0.272,0-0.483,0.048-0.632,0.144
			c-0.149,0.094-0.289,0.277-0.422,0.55c-0.133,0.273-0.282,0.65-0.446,1.13l-2.08,5.936l-2.194-6.383
			c-0.145-0.443-0.312-0.783-0.503-1.021c-0.191-0.237-0.473-0.356-0.846-0.356c-0.215,0-0.423,0.057-0.622,0.172
			c-0.199,0.113-0.355,0.266-0.47,0.456c-0.114,0.189-0.171,0.394-0.171,0.616c0,0.209,0.099,0.546,0.295,1.007l3.191,8.035
			l-0.237,0.58c-0.177,0.424-0.335,0.746-0.47,0.963c-0.137,0.22-0.29,0.373-0.461,0.461c-0.171,0.09-0.406,0.134-0.704,0.134
			c-0.12,0-0.262-0.02-0.427-0.057c-0.133-0.039-0.27-0.059-0.409-0.059c-0.354,0-0.622,0.082-0.801,0.243
			c-0.182,0.161-0.271,0.392-0.271,0.689c0,0.436,0.189,0.737,0.57,0.903c0.379,0.164,0.949,0.246,1.708,0.246
			c0.779,0,1.397-0.118,1.857-0.356c0.459-0.236,0.828-0.578,1.106-1.021c0.279-0.443,0.563-1.054,0.855-1.832l3.381-8.853
			c0.082-0.227,0.151-0.453,0.208-0.674c0.058-0.223,0.098-0.394,0.124-0.514c0-0.196-0.05-0.383-0.148-0.56
			C385.163,775.332,385.024,775.191,384.844,775.087z"/>
		<path style="fill:#D22F02;" d="M420.11,773.352c0.139-0.274,0.438-0.415,0.905-0.415c0.171,0,0.386,0.022,0.623,0.056
			c0.249,0.041,0.428,0.06,0.527,0.06c0.215,0,0.403-0.087,0.558-0.256c0.161-0.171,0.24-0.377,0.24-0.615
			c0-0.747-0.753-1.114-2.272-1.114c-0.853,0-1.526,0.109-2.017,0.326c-0.491,0.219-0.843,0.566-1.047,1.045
			c-0.207,0.48-0.307,1.123-0.307,1.938v0.778h-0.618c-0.869,0-1.304,0.308-1.304,0.932c0,0.278,0.105,0.507,0.314,0.678
			c0.211,0.178,0.505,0.262,0.894,0.262h0.714v6.871c0,0.511,0.12,0.9,0.364,1.168c0.247,0.273,0.551,0.406,0.918,0.406
			c0.389,0,0.701-0.134,0.942-0.406c0.249-0.268,0.369-0.657,0.369-1.168v-6.871h0.633c0.465,0,0.827-0.057,1.089-0.171
			c0.266-0.114,0.393-0.386,0.393-0.805c0-0.599-0.49-0.896-1.481-0.896h-0.633v-0.617
			C419.915,774.021,419.983,773.628,420.11,773.352z"/>
		<path style="fill:#D22F02;" d="M429.72,776.418c0-0.448-0.256-0.812-0.771-1.085c-0.513-0.273-1.036-0.408-1.585-0.408
			c-0.547,0-0.978,0.135-1.31,0.408c-0.324,0.273-0.641,0.674-0.948,1.208c-0.022-0.534-0.128-0.935-0.317-1.208
			c-0.19-0.273-0.5-0.408-0.934-0.408c-0.841,0-1.261,0.583-1.261,1.749v7.223c0,0.518,0.124,0.91,0.36,1.174
			c0.239,0.269,0.545,0.4,0.927,0.4c0.379,0,0.69-0.129,0.938-0.395c0.241-0.261,0.374-0.656,0.374-1.18v-2.168
			c0-0.778,0.022-1.44,0.071-1.982c0.054-0.539,0.144-1.01,0.273-1.404c0.134-0.39,0.322-0.682,0.564-0.887
			c0.239-0.195,0.552-0.298,0.932-0.298c0.275,0,0.598,0.06,0.963,0.173c0.361,0.117,0.593,0.18,0.692,0.18
			c0.252,0,0.486-0.102,0.706-0.311C429.609,776.998,429.72,776.732,429.72,776.418z"/>
		<path style="fill:#D22F02;" d="M438.688,780.546c0.373-0.195,0.561-0.617,0.561-1.266c0-0.706-0.181-1.393-0.542-2.074
			c-0.355-0.678-0.905-1.231-1.629-1.654c-0.726-0.432-1.596-0.646-2.606-0.646c-0.781,0-1.49,0.125-2.128,0.374
			c-0.642,0.25-1.177,0.607-1.612,1.078c-0.441,0.472-0.774,1.029-0.999,1.688c-0.23,0.656-0.348,1.368-0.348,2.135
			c0,1.626,0.468,2.916,1.392,3.868c0.923,0.949,2.216,1.422,3.887,1.422c0.726,0,1.372-0.096,1.932-0.286
			c0.559-0.187,1.023-0.429,1.398-0.714c0.373-0.29,0.648-0.589,0.836-0.906c0.179-0.311,0.268-0.584,0.268-0.819
			c0-0.267-0.077-0.47-0.243-0.617c-0.168-0.148-0.381-0.222-0.649-0.222c-0.244,0-0.434,0.061-0.568,0.174
			c-0.323,0.303-0.588,0.544-0.79,0.719c-0.204,0.182-0.422,0.348-0.664,0.5c-0.24,0.155-0.491,0.271-0.745,0.341
			c-0.257,0.078-0.539,0.111-0.85,0.111c-0.465,0-0.884-0.112-1.268-0.34c-0.385-0.23-0.69-0.57-0.925-1.017
			c-0.23-0.448-0.346-0.971-0.354-1.559h5.074C437.791,780.836,438.315,780.739,438.688,780.546z M432.039,779.361
			c0.087-0.873,0.341-1.531,0.755-1.978c0.415-0.449,0.946-0.669,1.592-0.669c0.682,0,1.223,0.218,1.641,0.66
			c0.416,0.437,0.651,1.102,0.714,1.986H432.039z"/>
		<path style="fill:#D22F02;" d="M449.475,780.546c0.37-0.195,0.561-0.617,0.561-1.266c0-0.706-0.185-1.393-0.545-2.074
			c-0.355-0.678-0.901-1.231-1.621-1.654c-0.735-0.432-1.605-0.646-2.613-0.646c-0.778,0-1.491,0.125-2.129,0.374
			c-0.642,0.25-1.179,0.607-1.614,1.078c-0.438,0.472-0.77,1.029-0.996,1.688c-0.232,0.656-0.348,1.368-0.348,2.135
			c0,1.626,0.465,2.916,1.389,3.868c0.928,0.949,2.22,1.422,3.887,1.422c0.727,0,1.377-0.096,1.935-0.286
			c0.556-0.187,1.025-0.429,1.395-0.714c0.375-0.29,0.653-0.589,0.83-0.906c0.186-0.311,0.273-0.584,0.273-0.819
			c0-0.267-0.075-0.47-0.24-0.617c-0.167-0.148-0.382-0.222-0.65-0.222c-0.242,0-0.434,0.061-0.568,0.174
			c-0.324,0.303-0.589,0.544-0.788,0.719c-0.204,0.182-0.422,0.348-0.664,0.5c-0.244,0.155-0.491,0.271-0.75,0.341
			c-0.252,0.078-0.537,0.111-0.845,0.111c-0.466,0-0.889-0.112-1.271-0.34c-0.382-0.23-0.689-0.57-0.921-1.017
			c-0.229-0.448-0.349-0.971-0.354-1.559h5.073C448.576,780.836,449.1,780.739,449.475,780.546z M442.827,779.361
			c0.084-0.873,0.338-1.531,0.751-1.978c0.417-0.449,0.947-0.669,1.593-0.669c0.681,0,1.222,0.218,1.643,0.66
			c0.411,0.437,0.651,1.102,0.715,1.986H442.827z"/>
		<path style="fill:#D22F02;" d="M459.094,775.56c-0.672-0.409-1.412-0.617-2.207-0.617c-0.664,0-1.264,0.143-1.782,0.427
			c-0.53,0.282-1.038,0.724-1.524,1.324v-0.311c0-0.475-0.113-0.831-0.349-1.085c-0.229-0.249-0.526-0.374-0.896-0.374
			c-0.373,0-0.67,0.125-0.885,0.364c-0.214,0.248-0.32,0.612-0.32,1.107v11.193c0,0.567,0.082,0.992,0.233,1.291
			c0.163,0.293,0.481,0.44,0.972,0.44c0.828,0,1.244-0.574,1.244-1.71v-3.893c0.459,0.572,0.939,1.014,1.441,1.306
			c0.501,0.299,1.127,0.447,1.865,0.447c0.616,0,1.186-0.122,1.728-0.363c0.534-0.244,0.996-0.596,1.39-1.046
			c0.392-0.453,0.705-1.012,0.929-1.68c0.224-0.67,0.336-1.405,0.336-2.201c0-1.084-0.196-2.018-0.586-2.813
			C460.292,776.576,459.765,775.975,459.094,775.56z M458.332,781.967c-0.219,0.5-0.513,0.874-0.884,1.127
			c-0.367,0.246-0.769,0.372-1.197,0.372c-0.727,0-1.325-0.285-1.813-0.858c-0.491-0.573-0.735-1.38-0.735-2.406
			c0-1.098,0.247-1.927,0.739-2.493c0.49-0.56,1.095-0.844,1.809-0.844c0.45,0,0.865,0.134,1.232,0.396
			c0.367,0.261,0.657,0.636,0.866,1.128c0.208,0.489,0.315,1.078,0.315,1.763C458.664,780.859,458.553,781.465,458.332,781.967z"/>
		<path style="fill:#D22F02;" d="M463.852,774.925c-0.381,0-0.685,0.127-0.928,0.392c-0.233,0.26-0.355,0.644-0.355,1.154v7.428
			c0,0.501,0.122,0.89,0.355,1.166c0.243,0.273,0.547,0.406,0.928,0.406c0.381,0,0.691-0.131,0.941-0.4
			c0.246-0.264,0.37-0.656,0.37-1.172v-7.502c0-0.458-0.124-0.82-0.37-1.08C464.544,775.052,464.233,774.925,463.852,774.925z"/>
		<path style="fill:#D22F02;" d="M463.88,771.181c-0.348,0-0.652,0.121-0.914,0.355c-0.266,0.24-0.396,0.542-0.396,0.91
			c0,0.404,0.128,0.714,0.388,0.937c0.254,0.221,0.561,0.335,0.923,0.335c0.352,0,0.652-0.114,0.906-0.336
			c0.251-0.225,0.378-0.536,0.378-0.936c0-0.412-0.131-0.728-0.391-0.946C464.516,771.287,464.22,771.181,463.88,771.181z"/>
		<path style="fill:#D22F02;" d="M475.627,782.974l-2.659-4.183l1.377-1.263c0.701-0.633,1.055-1.143,1.055-1.522
			c0-0.308-0.109-0.567-0.32-0.773c-0.222-0.205-0.489-0.309-0.815-0.309c-0.27,0-0.5,0.069-0.689,0.208
			c-0.194,0.138-0.465,0.402-0.827,0.778l-2.916,3.063v-6.293c0-0.528-0.119-0.932-0.354-1.202c-0.236-0.274-0.55-0.411-0.949-0.411
			c-0.408,0-0.73,0.147-0.953,0.452c-0.217,0.303-0.331,0.74-0.331,1.314v11.063c0,0.518,0.117,0.91,0.344,1.174
			c0.226,0.269,0.542,0.4,0.94,0.4c0.34,0,0.649-0.134,0.906-0.406c0.264-0.268,0.397-0.65,0.397-1.149v-2.065l1.408-1.328
			l2.284,3.766c0.29,0.444,0.527,0.755,0.697,0.928c0.17,0.175,0.417,0.256,0.733,0.256c0.362,0,0.661-0.117,0.886-0.354
			c0.227-0.241,0.341-0.563,0.341-0.976c0-0.143-0.046-0.303-0.13-0.462C475.966,783.518,475.82,783.287,475.627,782.974z"/>
		<path style="fill:#D22F02;" d="M479.135,782.611c-0.4,0-0.733,0.14-1.008,0.419c-0.272,0.276-0.41,0.609-0.41,0.995
			c0,0.459,0.145,0.815,0.429,1.064c0.286,0.255,0.622,0.381,1.014,0.381c0.379,0,0.711-0.126,0.998-0.386
			c0.279-0.252,0.422-0.607,0.422-1.06c0-0.39-0.143-0.727-0.422-1.002C479.87,782.751,479.532,782.611,479.135,782.611z"/>
		<path style="fill:#D22F02;" d="M490.954,781.129c-0.267,0-0.493,0.086-0.676,0.249c-0.182,0.166-0.351,0.393-0.509,0.684
			c-0.284,0.495-0.61,0.861-0.986,1.102c-0.37,0.24-0.815,0.36-1.337,0.36c-0.383,0-0.739-0.072-1.064-0.226
			c-0.322-0.149-0.596-0.367-0.826-0.654c-0.229-0.288-0.403-0.637-0.52-1.044c-0.12-0.408-0.183-0.859-0.183-1.348
			c0-1.034,0.235-1.858,0.703-2.454c0.47-0.6,1.092-0.898,1.854-0.898c0.533,0,0.971,0.119,1.314,0.362
			c0.35,0.237,0.679,0.601,0.996,1.079c0.174,0.252,0.335,0.43,0.479,0.542c0.143,0.109,0.322,0.166,0.541,0.166
			c0.323,0,0.603-0.109,0.839-0.324c0.229-0.216,0.343-0.479,0.343-0.787c0-0.307-0.101-0.636-0.308-0.987
			c-0.204-0.349-0.503-0.678-0.89-0.992c-0.393-0.308-0.864-0.563-1.425-0.759c-0.564-0.197-1.179-0.295-1.852-0.295
			c-1.078,0-2.015,0.222-2.794,0.67c-0.777,0.446-1.374,1.079-1.781,1.894c-0.415,0.818-0.619,1.757-0.619,2.824
			c0,1.57,0.45,2.824,1.346,3.76c0.899,0.932,2.151,1.401,3.758,1.401c0.75,0,1.43-0.104,2.03-0.307
			c0.604-0.201,1.1-0.472,1.495-0.804c0.397-0.332,0.694-0.68,0.886-1.05c0.194-0.366,0.291-0.714,0.291-1.034
			c0-0.271-0.106-0.529-0.317-0.769C491.534,781.252,491.27,781.129,490.954,781.129z"/>
		<path style="fill:#D22F02;" d="M501.854,776.386c-0.461-0.465-1.006-0.828-1.644-1.079c-0.641-0.257-1.354-0.382-2.139-0.382
			c-0.771,0-1.478,0.125-2.121,0.374c-0.638,0.253-1.18,0.608-1.631,1.07c-0.45,0.461-0.797,1.019-1.039,1.673
			c-0.234,0.652-0.358,1.372-0.358,2.158c0,0.776,0.121,1.487,0.351,2.131c0.243,0.643,0.591,1.2,1.052,1.677
			c0.455,0.468,1.003,0.833,1.626,1.082c0.628,0.255,1.336,0.383,2.121,0.383c0.789,0,1.499-0.128,2.139-0.375
			c0.63-0.252,1.177-0.611,1.632-1.08c0.458-0.466,0.803-1.026,1.05-1.679c0.233-0.654,0.355-1.369,0.355-2.139
			c0-0.782-0.12-1.491-0.354-2.143C502.657,777.415,502.312,776.86,501.854,776.386z M499.946,782.652
			c-0.463,0.596-1.09,0.892-1.874,0.892c-0.518,0-0.967-0.138-1.353-0.404c-0.384-0.269-0.678-0.655-0.886-1.166
			c-0.207-0.506-0.31-1.095-0.31-1.773c0-0.686,0.107-1.285,0.315-1.799c0.209-0.515,0.503-0.902,0.89-1.164
			c0.388-0.262,0.835-0.394,1.343-0.394c0.784,0,1.411,0.292,1.874,0.888c0.464,0.588,0.698,1.41,0.698,2.469
			C500.644,781.241,500.41,782.062,499.946,782.652z"/>
		<path style="fill:#D22F02;" d="M517.733,775.362c-0.513-0.276-1.128-0.419-1.834-0.419c-0.609,0-1.162,0.129-1.662,0.386
			c-0.501,0.258-0.971,0.652-1.41,1.181c-0.307-0.521-0.69-0.916-1.16-1.177c-0.467-0.259-1.026-0.39-1.678-0.39
			c-0.631,0-1.196,0.126-1.713,0.386c-0.51,0.249-0.991,0.646-1.444,1.181v-0.245c0-0.418-0.118-0.746-0.354-0.984
			c-0.24-0.232-0.535-0.355-0.892-0.355c-0.363,0-0.66,0.125-0.89,0.382c-0.224,0.251-0.335,0.622-0.335,1.111v7.419
			c0,0.538,0.124,0.946,0.376,1.224c0.25,0.273,0.571,0.412,0.967,0.412c0.397,0,0.716-0.139,0.965-0.412
			c0.239-0.277,0.361-0.685,0.361-1.224v-3.502c0-1.094,0.139-1.931,0.406-2.507c0.27-0.591,0.826-0.881,1.677-0.881
			c0.422,0,0.734,0.116,0.931,0.352c0.194,0.227,0.316,0.529,0.362,0.883c0.043,0.362,0.063,0.871,0.063,1.524v4.131
			c0,0.547,0.125,0.951,0.372,1.227c0.237,0.273,0.559,0.408,0.951,0.408c0.406,0,0.728-0.136,0.978-0.408
			c0.249-0.276,0.369-0.681,0.369-1.227v-3.446c0-1.11,0.099-1.885,0.284-2.323c0.174-0.336,0.414-0.614,0.721-0.813
			c0.308-0.201,0.632-0.308,0.974-0.308c0.423,0,0.741,0.116,0.953,0.344c0.206,0.227,0.336,0.51,0.383,0.847
			c0.046,0.335,0.069,0.779,0.069,1.338v4.361c0,0.538,0.126,0.946,0.376,1.224c0.251,0.273,0.57,0.412,0.965,0.412
			c0.404,0,0.733-0.136,0.979-0.408c0.245-0.276,0.367-0.681,0.367-1.227v-5.063c0-1.007-0.109-1.744-0.33-2.217
			C518.626,776.042,518.243,775.641,517.733,775.362z"/>
		<path style="fill:#D22F02;" d="M398.046,770.365c0.989-0.329,1.846-0.529,2.624-0.613c0.762-0.081,1.335-0.116,1.802-0.116
			c0.501,0,0.871,0.04,1.295,0.111l0.12-0.763c0,0-1.171-0.36-2.71-0.234l-0.121-0.415c0.478-0.101,0.838-0.526,0.838-1.034
			c0-0.582-0.474-1.054-1.057-1.054s-1.056,0.472-1.056,1.054c0,0.508,0.358,0.934,0.836,1.034l0.134,0.463
			c-1.634,0.225-2.935,0.862-2.935,0.862L398.046,770.365z"/>
		<path style="fill:#D22F02;" d="M393.411,773.486c0.039-0.05,0.076-0.097,0.113-0.143l-0.313-0.226l-0.488-0.356
			c-0.027,0.038-0.795,0.744-1.401,2.048c-0.025-0.041-0.056-0.081-0.09-0.119c-0.182-0.198-0.436-0.3-0.758-0.294
			c-0.004,0-0.009,0-0.015,0c-0.2,0-0.337-0.066-0.427-0.147c0.089-0.113,0.143-0.256,0.143-0.413c0-0.368-0.3-0.669-0.669-0.669
			c-0.369,0-0.669,0.301-0.669,0.669c0,0.37,0.3,0.669,0.669,0.669c0.058,0,0.113-0.01,0.167-0.021
			c0.164,0.183,0.425,0.342,0.808,0.334c0.197-0.002,0.341,0.049,0.438,0.155c0.111,0.121,0.148,0.296,0.16,0.428
			c-0.001,0.002-0.001,0.005-0.003,0.005c-0.435,1.19-0.311,2.67-0.311,2.67l1.057,0.042c0.022-0.539,0.099-1.482,0.372-2.23
			c0.526-1.449,1.185-2.355,1.212-2.394L393.411,773.486z"/>
		<path style="fill:#D22F02;" d="M411.672,770.519c-0.368,0-0.669,0.299-0.669,0.669c0,0.058,0.009,0.112,0.023,0.165
			c-0.184,0.166-0.343,0.428-0.337,0.81c0.003,0.197-0.048,0.34-0.154,0.437c-0.085,0.075-0.191,0.115-0.296,0.141
			c-0.787-1.103-1.756-1.775-1.756-1.775l-0.759,0.813c0.573,0.521,1.159,1.175,1.729,1.99c0.394,0.564,0.799,1.29,1.136,2.015
			l1.024-0.486c0,0-0.468-1.155-1.126-2.191c0.114-0.04,0.229-0.102,0.331-0.192c0.2-0.181,0.299-0.437,0.293-0.758
			c-0.002-0.208,0.067-0.349,0.149-0.441c0.114,0.087,0.257,0.143,0.412,0.143c0.371,0,0.67-0.3,0.67-0.669
			C412.342,770.818,412.043,770.519,411.672,770.519z"/>
		<path style="fill:#D22F02;" d="M409.015,779.722c-1.409,0.687-3.728,1.594-6.781,2.02c-1.198,0.166-2.359,0.227-3.428,0.227
			c-1.391,0-2.62-0.104-3.563-0.223c-1.076-0.136-1.917-0.302-2.432-0.418c0,0-0.002,0-0.003,0c0.127,0.4,0.28,0.788,0.457,1.158
			c0.003,0.01,0.008,0.02,0.013,0.027c0.021,0.044,0.043,0.09,0.065,0.134c0.021,0.044,0.043,0.087,0.065,0.127
			c0.006,0.012,0.011,0.023,0.017,0.033c0.303,0.57,0.667,1.095,1.081,1.549c1.44,1.575,2.907,1.824,2.921,1.826l0.023,0.003
			l0.022,0.008c0.013,0.005,1.314,0.425,3.292,0.425c1.945,0,3.854-0.393,5.674-1.167c1.348-0.689,2.622-1.736,3.254-2.67
			c0.488-0.723,0.841-1.493,1.05-2.294c0.111-0.426,0.199-1.107,0.147-1.825C410.49,778.929,409.863,779.308,409.015,779.722z"/>
		<path style="fill:#D22F02;" d="M402.117,780.903c2.927-0.407,5.149-1.273,6.499-1.927c1.121-0.544,1.842-1.036,2.12-1.238
			c-0.277-1.028-1.042-2.641-1.743-3.646c-2.005-2.865-4.167-3.601-5.277-3.783c-0.424-0.069-0.763-0.109-1.243-0.109
			c-0.447,0-1.002,0.036-1.743,0.114c-0.743,0.077-1.572,0.272-2.532,0.596c-1.348,0.451-2.567,1.159-3.527,2.048l-0.033,0.03
			c-0.142,0.131-0.439,0.406-0.78,0.841c-0.041,0.06-0.652,0.925-1.135,2.253c-0.362,0.995-0.346,2.443-0.346,2.46v0.003
			c0,0.34,0.019,0.677,0.057,1.011c0,0.008,0,0.013,0.002,0.018c0.004,0.043,0.011,0.084,0.015,0.127
			c0.03,0.233,0.069,0.469,0.116,0.702c0.002,0,0.002,0,0.003,0C393.269,780.579,397.447,781.554,402.117,780.903z M406.127,773.161
			c0.961,0,1.743,0.781,1.743,1.743c0,0.962-0.782,1.744-1.743,1.744c-0.962,0-1.742-0.782-1.742-1.744
			C404.385,773.942,405.165,773.161,406.127,773.161z M395.069,775.909c0-1.556,1.261-2.817,2.816-2.817
			c1.557,0,2.817,1.262,2.817,2.817c0,1.556-1.26,2.814-2.817,2.814C396.33,778.724,395.069,777.465,395.069,775.909z"/>
	</g>
</g>
</svg>
