<?xml version="1.0" encoding="UTF-8" standalone="no"?>
<!-- Generator: Adobe Illustrator 27.5.0, SVG Export Plug-In . SVG Version: 6.00 Build 0)  -->

<svg
   version="1.1"
   x="0px"
   y="0px"
   viewBox="0 0 800 800"
   xml:space="preserve"
   id="svg162"
   sodipodi:docname="Fuegos.svg"
   style="enable-background:new 0 0 800 800;"
   inkscape:version="1.3 (0e150ed6c4, 2023-07-21)"
   xmlns:inkscape="http://www.inkscape.org/namespaces/inkscape"
   xmlns:sodipodi="http://sodipodi.sourceforge.net/DTD/sodipodi-0.dtd"
   xmlns="http://www.w3.org/2000/svg"
   xmlns:svg="http://www.w3.org/2000/svg"><defs
   id="defs162" /><sodipodi:namedview
   id="namedview162"
   pagecolor="#ffffff"
   bordercolor="#000000"
   borderopacity="0.25"
   inkscape:showpageshadow="2"
   inkscape:pageopacity="0.0"
   inkscape:pagecheckerboard="0"
   inkscape:deskcolor="#d1d1d1"
   inkscape:zoom="0.98375"
   inkscape:cx="363.9136"
   inkscape:cy="329.86023"
   inkscape:window-width="1920"
   inkscape:window-height="1001"
   inkscape:window-x="-9"
   inkscape:window-y="-9"
   inkscape:window-maximized="1"
   inkscape:current-layer="g135" />&#10;&#10;<g
   id="OBJECTS">&#10;	<g
   id="g135">&#10;		<g
   id="g11"
   transform="rotate(-90,147.999,148.38)">&#10;			<linearGradient
   id="SVGID_1_"
   gradientUnits="userSpaceOnUse"
   x1="148"
   y1="36.111401"
   x2="148"
   y2="260.64679">&#10;				<stop
   offset="0"
   style="stop-color:#D22F02"
   id="stop1" />&#10;				<stop
   offset="0.2371"
   style="stop-color:#CC2D02"
   id="stop2" />&#10;				<stop
   offset="0.5378"
   style="stop-color:#BD2602"
   id="stop3" />&#10;				<stop
   offset="0.8716"
   style="stop-color:#A31C03"
   id="stop4" />&#10;				<stop
   offset="1"
   style="stop-color:#971703"
   id="stop5" />&#10;			</linearGradient>&#10;			<path
   style="fill:url(#SVGID_1_)"
   d="m 216.265,139.945 c 0,0 -7.662,19.587 -20.473,13.145 -15.024,-7.554 9.395,-25.878 13.858,-34.995 8.637,-17.644 -1.595,-34.286 -15.11,-46.019 0,0 3.877,6.95 2.626,14.012 -2.618,14.777 -19.798,9.194 -18.435,-4.237 0.569,-5.606 3.466,-10.672 5.173,-16.042 3.093,-9.73 1.969,-20.646 -2.708,-29.697 1.535,4.212 1.763,9.011 0.816,13.425 -1.62,7.542 -6.104,14.143 -10.981,20.121 -1.336,1.637 -2.711,3.248 -4.085,4.86 -3.983,4.672 -11.762,0.965 -10.388,-5.018 0.031,-0.137 0.066,-0.268 0.104,-0.392 1.988,-6.449 5.992,-12.261 11.515,-16.177 -11.9,6.839 -19.472,17.323 -20.354,31.086 -0.507,7.913 2.806,19.523 -4.024,25.563 -7.14,6.314 -17.434,1.089 -15.025,-11.049 1.396,-7.035 7.532,-12.106 7.53,-12.105 -17.356,6.211 -24.121,27.573 -28.614,43.564 -2.35,8.365 -3.17,18.089 -6.541,26.077 -3.976,9.42 -13.857,8.968 -18.204,-0.691 -2.944,-6.541 -0.887,-14.23 -0.887,-14.23 -4.987,13.314 -6.117,44.464 -6.117,47.444 0,39.796 32.261,72.058 72.058,72.058 39.797,0 72.058,-32.261 72.058,-72.058 0.001,-2.646 -3.792,-48.645 -3.792,-48.645 z"
   id="path5" />&#10;			&#10;				<linearGradient
   id="SVGID_00000169550139877224701080000004722622532795623102_"
   gradientUnits="userSpaceOnUse"
   x1="113.5256"
   y1="131.24181"
   x2="175.4294"
   y2="238.4624">&#10;				<stop
   offset="0"
   style="stop-color:#FF6100"
   id="stop6" />&#10;				<stop
   offset="0.2918"
   style="stop-color:#FF6D01"
   id="stop7" />&#10;				<stop
   offset="0.812"
   style="stop-color:#FF8B02"
   id="stop8" />&#10;				<stop
   offset="1"
   style="stop-color:#FF9803"
   id="stop9" />&#10;			</linearGradient>&#10;			<path
   style="fill:url(#SVGID_00000169550139877224701080000004722622532795623102_)"
   d="m 187.298,170.571 c 0,0 -5.058,12.932 -13.517,8.679 -9.919,-4.987 6.203,-17.086 9.15,-23.105 5.703,-11.649 -1.053,-22.637 -9.976,-30.383 0,0 2.56,4.589 1.734,9.251 -1.729,9.756 -13.071,6.07 -12.171,-2.798 0.376,-3.701 2.289,-7.046 3.416,-10.592 2.042,-6.424 1.3,-13.632 -1.788,-19.607 1.013,2.781 1.164,5.949 0.538,8.864 -1.069,4.98 -4.03,9.338 -7.25,13.284 -0.882,1.081 -1.79,2.145 -2.697,3.208 -2.63,3.085 -7.766,0.637 -6.859,-3.313 0.021,-0.09 0.044,-0.177 0.069,-0.258 1.313,-4.258 3.956,-8.096 7.602,-10.681 -7.857,4.516 -12.856,11.438 -13.439,20.524 -0.335,5.225 1.853,12.89 -2.657,16.878 -4.714,4.169 -11.511,0.719 -9.92,-7.295 0.922,-4.645 4.973,-7.993 4.972,-7.992 -11.503,3.975 -15.925,18.204 -18.892,28.762 -1.552,5.523 -2.093,11.943 -4.319,17.217 -2.625,6.22 -9.149,5.921 -12.019,-0.456 -1.944,-4.318 -0.585,-9.395 -0.585,-9.395 -3.293,8.79 -4.038,29.356 -4.038,31.324 0,26.275 21.3,47.575 47.575,47.575 26.275,0 47.575,-21.3 47.575,-47.575 0,-1.746 -2.504,-32.116 -2.504,-32.116 z"
   id="path9" />&#10;			&#10;				<linearGradient
   id="SVGID_00000152983889274131039320000003977404926455528072_"
   gradientUnits="userSpaceOnUse"
   x1="122.5227"
   y1="182.1077"
   x2="152.5699"
   y2="234.151">&#10;				<stop
   offset="0.0051"
   style="stop-color:#FF9803"
   id="stop10" />&#10;				<stop
   offset="0.9949"
   style="stop-color:#FAF154"
   id="stop11" />&#10;			</linearGradient>&#10;			<path
   style="fill:url(#SVGID_00000152983889274131039320000003977404926455528072_)"
   d="m 158.331,201.198 c 0,0 -2.455,6.277 -6.561,4.213 -4.815,-2.421 3.011,-8.293 4.441,-11.215 2.768,-5.654 -0.511,-10.988 -4.842,-14.748 0,0 1.242,2.227 0.842,4.49 -0.839,4.736 -6.345,2.947 -5.908,-1.358 0.182,-1.797 1.111,-3.42 1.658,-5.141 0.991,-3.118 0.631,-6.617 -0.868,-9.517 0.492,1.35 0.565,2.888 0.261,4.302 -0.519,2.417 -1.956,4.532 -3.519,6.448 -0.428,0.525 -0.869,1.041 -1.309,1.557 -1.276,1.497 -3.769,0.309 -3.329,-1.608 0.01,-0.044 0.021,-0.086 0.034,-0.125 0.637,-2.067 1.92,-3.929 3.69,-5.184 -3.814,2.192 -6.24,5.552 -6.523,9.962 -0.163,2.536 0.899,6.257 -1.29,8.192 -2.288,2.023 -5.587,0.349 -4.815,-3.541 0.447,-2.255 2.414,-3.879 2.414,-3.879 -5.563,1.991 -7.73,8.836 -9.17,13.961 -0.753,2.681 -1.016,5.797 -2.096,8.357 -1.274,3.019 -4.441,2.874 -5.834,-0.221 -0.943,-2.096 -0.284,-4.56 -0.284,-4.56 -1.598,4.267 -1.96,14.249 -1.96,15.204 0,12.753 10.339,23.092 23.092,23.092 12.753,0 23.092,-10.339 23.092,-23.092 -0.001,-0.848 -1.216,-15.589 -1.216,-15.589 z"
   id="path11" />&#10;		</g>&#10;		&#10;		&#10;		<g
   id="g55"
   transform="rotate(-90,398.66634,148.3792)">&#10;			<g
   id="g54">&#10;				&#10;					<linearGradient
   id="SVGID_00000123440250521761331130000004052850711697568696_"
   gradientUnits="userSpaceOnUse"
   x1="344.25769"
   y1="66.551903"
   x2="448.8848"
   y2="247.77139">&#10;					<stop
   offset="0"
   style="stop-color:#D22F02"
   id="stop44" />&#10;					<stop
   offset="0.2371"
   style="stop-color:#CC2D02"
   id="stop45" />&#10;					<stop
   offset="0.5378"
   style="stop-color:#BD2602"
   id="stop46" />&#10;					<stop
   offset="0.8716"
   style="stop-color:#A31C03"
   id="stop47" />&#10;					<stop
   offset="1"
   style="stop-color:#971703"
   id="stop48" />&#10;				</linearGradient>&#10;				<path
   style="fill:url(#SVGID_00000123440250521761331130000004052850711697568696_)"
   d="m 353.324,168.145 v 0 0 0 l 0.002,-0.001 v 0 l -0.002,0.001 z m 96.268,24.539 c 2.22,2.762 3.551,6.268 3.551,10.088 0,8.902 -7.216,16.118 -16.118,16.118 -8.902,0 -16.118,-7.216 -16.118,-16.118 0,-0.819 0.062,-1.624 0.18,-2.411 -0.378,-14.134 18.088,-34.046 23.188,-40.531 11.86,-15.079 32.234,-47.455 -15.222,-75.213 0,0 6.179,7.418 6.268,16.117 0.153,15.009 -13.288,18.932 -20.385,9.806 -12.18,-15.66 20.434,-41.75 -17.954,-74.429 7.594,7.051 23.879,27.666 -1.057,57.46 -4.862,5.808 -6.685,12.437 -7.596,19.163 -13.254,-23.868 -0.028,-40.331 6.594,-46.479 -38.388,32.679 -5.774,58.769 -17.955,74.43 -7.098,9.125 -20.538,5.202 -20.385,-9.806 0.089,-8.699 6.268,-16.117 6.268,-16.117 -23.728,13.879 -30.968,47.557 -24.682,79.017 6.286,31.46 26.098,60.701 56.473,65.704 38.054,6.268 64.471,-13.73 66.609,-36.956 0.577,-6.269 -2.459,-23.109 -11.659,-29.843 z"
   id="path48" />&#10;				&#10;					<linearGradient
   id="SVGID_00000011717825632397584720000009045132163590949784_"
   gradientUnits="userSpaceOnUse"
   x1="359.4093"
   y1="133.2123"
   x2="423.54031"
   y2="244.2905">&#10;					<stop
   offset="0"
   style="stop-color:#FF6100"
   id="stop49" />&#10;					<stop
   offset="0.2918"
   style="stop-color:#FF6D01"
   id="stop50" />&#10;					<stop
   offset="0.812"
   style="stop-color:#FF8B02"
   id="stop51" />&#10;					<stop
   offset="1"
   style="stop-color:#FF9803"
   id="stop52" />&#10;				</linearGradient>&#10;				<path
   style="fill:url(#SVGID_00000011717825632397584720000009045132163590949784_)"
   d="m 366.625,196.943 v 0 0 0 0 0 0 l -10e-4,10e-4 v 0 0 0 0 l 10e-4,-10e-4 v 0 0 0 z m 25.271,-82.487 c 3.861,5.381 10.889,17.622 -1.888,34.125 -2.249,2.906 -3.399,5.971 -4.005,8.789 -0.243,0.602 -0.446,1.213 -0.618,1.827 -5.366,-8.977 -3.204,-15.964 -0.483,-20.424 0.868,-2.323 2.212,-3.977 3.163,-4.902 -5.987,5.032 -8.822,10.008 -10.163,14.484 -3.584,11.972 4.799,21.631 0.572,28.42 -0.173,0.279 -0.365,0.551 -0.576,0.817 -4.323,5.414 -12.243,3.306 -12.151,-5.322 0.034,-3.158 1.661,-5.734 2.529,-7.228 0.531,-1.073 0.982,-1.697 0.867,-1.629 -14.049,8.233 -18.354,28.778 -14.707,46.853 3.861,19.072 16.514,36.521 35.78,39.491 23.904,3.702 41.784,-6.197 41.784,-20.596 0,-9 -6.932,-14.583 -7.231,-12.789 -0.681,4.188 -4.953,7.438 -9.938,6.941 -4.968,-0.483 -8.97,-4.705 -9.138,-9.944 -0.014,-0.475 0.005,-0.943 0.053,-1.403 -0.353,-8.097 9.011,-19.419 12.431,-24.284 6.605,-9.396 18.4,-27.623 -3.003,-44.14 -0.047,-0.109 2.197,4.142 1.492,9.176 -1.141,8.149 -8.709,10.832 -13.36,6.574 -0.969,-0.887 -1.58,-1.874 -2.068,-2.944 -3.909,-8.582 9.125,-23.912 -9.342,-41.892 z"
   id="path52" />&#10;				&#10;					<linearGradient
   id="SVGID_00000046319428577720912560000008393439781598937779_"
   gradientUnits="userSpaceOnUse"
   x1="376.4071"
   y1="198.80701"
   x2="399.01901"
   y2="237.97189">&#10;					<stop
   offset="0.0051"
   style="stop-color:#FF9803"
   id="stop53" />&#10;					<stop
   offset="0.9949"
   style="stop-color:#FAF154"
   id="stop54" />&#10;				</linearGradient>&#10;				<path
   style="fill:url(#SVGID_00000046319428577720912560000008393439781598937779_)"
   d="m 379.925,225.743 v 0 0 0 0 0 0 0 0 0 0 0 z m 6.885,-32.942 c 0.187,5.463 -3.494,12.233 -3.851,13.439 -3.214,-3.296 -0.791,-5.42 0.351,-5.944 -3.603,1.469 -4.301,3.969 -4.724,5.671 -0.872,3.525 2.075,6.214 0.432,8.305 -1.533,1.951 -4.14,1.731 -4.108,-0.61 0.018,-1.357 1.241,-1.967 1.241,-1.967 -4.938,2.164 -6.512,10.119 -5.451,15.059 1.436,6.683 6.931,12.341 15.088,13.278 9.755,1.134 17.234,-2.731 17.962,-8.16 0.16,-1.192 -28.622,0.288 -2.454,-29.407 -0.217,-0.502 -7.103,6.163 -11.121,5.673 -5.996,-0.731 -0.281,-8.194 -3.365,-15.337 z"
   id="path54" />&#10;			</g>&#10;		</g>&#10;		<g
   id="g65"
   transform="rotate(-90,398.66592,384.8215)">&#10;			&#10;				<linearGradient
   id="SVGID_00000109023146259454627830000015841527374587969202_"
   gradientUnits="userSpaceOnUse"
   x1="332.32211"
   y1="293.78281"
   x2="441.642"
   y2="483.13062">&#10;				<stop
   offset="0"
   style="stop-color:#D22F02"
   id="stop55" />&#10;				<stop
   offset="0.2371"
   style="stop-color:#CC2D02"
   id="stop56" />&#10;				<stop
   offset="0.5378"
   style="stop-color:#BD2602"
   id="stop57" />&#10;				<stop
   offset="0.8716"
   style="stop-color:#A31C03"
   id="stop58" />&#10;				<stop
   offset="1"
   style="stop-color:#971703"
   id="stop59" />&#10;			</linearGradient>&#10;			<path
   style="fill:url(#SVGID_00000109023146259454627830000015841527374587969202_)"
   d="m 443.766,335.038 c 4.023,4.494 6.54,10.891 6.54,17.995 0,13.598 -9.214,24.622 -20.579,24.622 -11.366,0 -21.622,-11.064 -20.579,-24.622 2.572,-33.441 3.307,-54.388 -40.056,-80.48 12.495,8.82 42.261,26.459 13.229,69.088 -6.558,9.629 -9.555,18.007 -7.571,34.384 -11.112,-22.48 -4.933,-55.022 3.497,-68.402 -10.686,13.75 -23.602,27.543 -33.494,46.003 -9.892,18.46 -16.76,41.587 -15.35,74.008 0.155,3.577 0.539,6.982 1.092,10.249 4.831,33.479 33.628,59.207 68.445,59.207 38.201,0 69.024,-30.969 69.169,-69.169 0.178,-46.464 -6.717,-78.049 -24.343,-92.883 z"
   id="path59" />&#10;			&#10;				<linearGradient
   id="SVGID_00000049193558417610302470000007772261257401293196_"
   gradientUnits="userSpaceOnUse"
   x1="355.06989"
   y1="360.81741"
   x2="423.97769"
   y2="480.1691">&#10;				<stop
   offset="0"
   style="stop-color:#FF6100"
   id="stop60" />&#10;				<stop
   offset="0.2918"
   style="stop-color:#FF6D01"
   id="stop61" />&#10;				<stop
   offset="0.812"
   style="stop-color:#FF8B02"
   id="stop62" />&#10;				<stop
   offset="1"
   style="stop-color:#FF9803"
   id="stop63" />&#10;			</linearGradient>&#10;			<path
   style="fill:url(#SVGID_00000049193558417610302470000007772261257401293196_)"
   d="m 426.183,388.773 c 2.573,2.762 4.183,6.694 4.183,11.06 0,8.357 -5.893,15.133 -13.162,15.133 -7.269,0 -13.829,-6.8 -13.162,-15.133 1.646,-20.553 0.958,-48.45 -17.042,-57.45 7.991,5.421 18.453,24.249 -0.115,50.449 -4.194,5.918 -6.111,11.067 -4.842,21.132 -7.107,-13.816 -3.155,-33.817 2.237,-42.04 -6.835,8.451 -15.095,16.928 -21.422,28.274 -6.327,11.346 -10.719,25.56 -9.818,45.486 0.099,2.198 0.37,4.287 0.698,6.299 3.35,20.536 21.507,36.389 43.775,36.389 24.432,0 44.145,-19.034 44.239,-42.512 0.113,-28.558 -4.296,-47.97 -15.569,-57.087 z"
   id="path63" />&#10;			&#10;				<linearGradient
   id="SVGID_00000170963983391027935350000013889527069473861516_"
   gradientUnits="userSpaceOnUse"
   x1="380.35501"
   y1="432.4577"
   x2="406.24869"
   y2="477.30688">&#10;				<stop
   offset="0.0051"
   style="stop-color:#FF9803"
   id="stop64" />&#10;				<stop
   offset="0.9949"
   style="stop-color:#FAF154"
   id="stop65" />&#10;			</linearGradient>&#10;			<path
   style="fill:url(#SVGID_00000170963983391027935350000013889527069473861516_)"
   d="m 408.6,442.508 c 1.123,1.03 1.826,2.496 1.826,4.125 0,3.117 -2.572,5.644 -5.744,5.644 -3.172,0 -6.035,-2.536 -5.744,-5.644 0.718,-7.665 0.923,-12.467 -11.181,-18.447 3.488,2.022 11.797,6.065 3.693,15.836 -1.831,2.207 -2.667,4.128 -2.113,7.881 -3.102,-5.153 -1.377,-12.612 0.976,-15.679 -2.983,3.152 -6.588,6.313 -9.349,10.544 -2.761,4.231 -4.678,9.533 -4.285,16.964 0.043,0.82 0.15,1.6 0.305,2.349 1.349,7.674 9.387,13.571 19.105,13.571 10.663,0 19.267,-7.098 19.307,-15.855 0.048,-10.65 -1.876,-17.889 -6.796,-21.289 z"
   id="path65" />&#10;		</g>&#10;		&#10;		<g
   id="g88"
   transform="rotate(-90,649.68733,148.38019)">&#10;			&#10;				<linearGradient
   id="SVGID_00000157285414520573128590000017733971103811647372_"
   gradientUnits="userSpaceOnUse"
   x1="594.82428"
   y1="73.280296"
   x2="694.16217"
   y2="245.3385">&#10;				<stop
   offset="0"
   style="stop-color:#D22F02"
   id="stop78" />&#10;				<stop
   offset="0.2371"
   style="stop-color:#CC2D02"
   id="stop79" />&#10;				<stop
   offset="0.5378"
   style="stop-color:#BD2602"
   id="stop80" />&#10;				<stop
   offset="0.8716"
   style="stop-color:#A31C03"
   id="stop81" />&#10;				<stop
   offset="1"
   style="stop-color:#971703"
   id="stop82" />&#10;			</linearGradient>&#10;			<path
   style="fill:url(#SVGID_00000157285414520573128590000017733971103811647372_)"
   d="m 674.694,65.982 c 4.792,3.621 9.756,10.42 13.078,19.722 2.305,6.453 -5.421,10.82 -10.024,5.743 -0.065,-0.072 -0.132,-0.145 -0.198,-0.217 -20.053,-21.778 -27.391,-45.174 -18.347,-55.118 -10.95,12.039 -22.595,26.507 -23.761,43.442 -0.426,6.182 0.948,12.053 2.699,17.848 -11.84,-8.226 -26.817,-6.744 -32.571,-6.402 23.947,2.517 31.297,17.575 28.552,35.69 -1.151,7.599 -8.789,9.97 -12.874,8.558 -0.031,-0.011 -0.062,-0.021 -0.094,-0.032 -10.356,-3.613 -11.279,-20.964 -5.514,-31.166 -10e-4,-0.002 -10e-4,-10e-4 -0.002,-0.002 -43.889,45.829 -30.373,97.952 -29.45,103.046 5.546,30.592 32.41,53.76 64.649,53.553 34.847,-0.223 63.084,-28.256 64.752,-63.064 2.612,-54.52 -13.777,-112.889 -40.895,-131.601 z"
   id="path82" />&#10;			&#10;				<linearGradient
   id="SVGID_00000027577534948609469120000006786049768284270244_"
   gradientUnits="userSpaceOnUse"
   x1="613.26257"
   y1="131.6067"
   x2="678.84088"
   y2="245.1916">&#10;				<stop
   offset="0"
   style="stop-color:#FF6100"
   id="stop83" />&#10;				<stop
   offset="0.2918"
   style="stop-color:#FF6D01"
   id="stop84" />&#10;				<stop
   offset="0.812"
   style="stop-color:#FF8B02"
   id="stop85" />&#10;				<stop
   offset="1"
   style="stop-color:#FF9803"
   id="stop86" />&#10;			</linearGradient>&#10;			<path
   style="fill:url(#SVGID_00000027577534948609469120000006786049768284270244_)"
   d="m 666.542,126.633 c 3.275,2.385 6.668,6.863 8.939,12.99 1.576,4.251 -3.705,7.127 -6.851,3.783 -0.045,-0.048 -0.09,-0.095 -0.136,-0.143 -13.706,-14.344 -18.721,-29.755 -12.54,-36.304 -7.484,7.93 -15.443,17.46 -16.24,28.613 -0.291,4.072 0.648,7.939 1.845,11.756 -8.092,-5.418 -18.329,-4.442 -22.261,-4.217 16.367,1.658 21.39,11.576 19.514,23.508 -0.787,5.005 -6.007,6.567 -8.799,5.637 -0.021,-0.007 -0.043,-0.014 -0.064,-0.021 -7.078,-2.38 -9.857,-15.151 -3.769,-20.528 -10e-4,-0.001 0,0 0,0 -27.222,35.584 -20.76,64.517 -20.129,67.872 3.791,20.15 22.151,35.41 44.186,35.274 23.817,-0.147 43.116,-18.611 44.256,-41.538 1.785,-35.911 -9.417,-74.356 -27.951,-86.682 z"
   id="path86" />&#10;			&#10;				<linearGradient
   id="SVGID_00000031184127831252558020000007513702912377736624_"
   gradientUnits="userSpaceOnUse"
   x1="631.71069"
   y1="189.9277"
   x2="663.54639"
   y2="245.0687">&#10;				<stop
   offset="0.0051"
   style="stop-color:#FF9803"
   id="stop87" />&#10;				<stop
   offset="0.9949"
   style="stop-color:#FAF154"
   id="stop88" />&#10;			</linearGradient>&#10;			<path
   style="fill:url(#SVGID_00000031184127831252558020000007513702912377736624_)"
   d="m 658.39,187.285 c 1.758,1.149 3.58,3.307 4.799,6.258 0.846,2.048 -1.989,3.434 -3.678,1.822 -0.024,-0.023 -0.048,-0.046 -0.073,-0.069 -7.359,-6.911 -10.051,-14.335 -6.732,-17.491 -4.018,3.82 -8.291,8.412 -8.719,13.785 -0.156,1.962 0.348,3.825 0.99,5.664 -4.345,-2.611 -9.84,-2.14 -11.952,-2.031 8.787,0.799 11.484,5.577 10.477,11.326 -0.422,2.411 -3.225,3.164 -4.724,2.716 -0.011,-0.003 -0.023,-0.007 -0.034,-0.01 -3.8,-1.146 -5.292,-7.299 -2.023,-9.89 0,-0.001 0,0 0,0 -14.615,17.144 -11.146,31.083 -10.807,32.7 2.035,9.708 11.893,17.06 23.722,16.994 12.787,-0.071 23.148,-8.967 23.76,-20.013 0.959,-17.3 -5.055,-35.823 -15.006,-41.761 z"
   id="path88" />&#10;		</g>&#10;		&#10;		&#10;	</g>&#10;</g>&#10;&#10;</svg>
