<?xml version="1.0" encoding="UTF-8" standalone="no"?>
<!-- Created with Inkscape (http://www.inkscape.org/) -->

<svg
   width="1122.5197"
   height="793.70081"
   viewBox="0 0 296.99999 210"
   version="1.1"
   id="svg1"
   xml:space="preserve"
   sodipodi:docname="reloj 1440.svg"
   inkscape:version="1.3 (0e150ed6c4, 2023-07-21)"
   xmlns:inkscape="http://www.inkscape.org/namespaces/inkscape"
   xmlns:sodipodi="http://sodipodi.sourceforge.net/DTD/sodipodi-0.dtd"
   xmlns="http://www.w3.org/2000/svg"
   xmlns:svg="http://www.w3.org/2000/svg"><sodipodi:namedview
     id="namedview1"
     pagecolor="#ffffff"
     bordercolor="#000000"
     borderopacity="0.25"
     inkscape:showpageshadow="2"
     inkscape:pageopacity="0.0"
     inkscape:pagecheckerboard="0"
     inkscape:deskcolor="#d1d1d1"
     inkscape:document-units="mm"
     inkscape:zoom="1.4022026"
     inkscape:cx="578.73235"
     inkscape:cy="476.74994"
     inkscape:window-width="1920"
     inkscape:window-height="1001"
     inkscape:window-x="-9"
     inkscape:window-y="-9"
     inkscape:window-maximized="1"
     inkscape:current-layer="layer1" /><defs
     id="defs1" /><g
     inkscape:label="Capa 1"
     inkscape:groupmode="layer"
     id="layer1"><ellipse
       style="fill:#ffffff;stroke:#000000;stroke-width:1.1694"
       id="path1"
       cx="228.47447"
       cy="139.63264"
       rx="23.574562"
       ry="21.830578" /><path
       style="fill:#000000;stroke-width:0.912676"
       d="m 228.08078,121.99881 c 0,-0.80639 0.0803,-0.96767 0.48208,-0.96767 0.40173,0 0.48207,0.16128 0.48207,0.96767 0,0.80639 -0.0803,0.96767 -0.48207,0.96767 -0.40175,0 -0.48208,-0.16128 -0.48208,-0.96767 z"
       id="path32" /><path
       style="fill:#000000;stroke-width:0.912676"
       d="m 236.66477,125.18772 c -0.0671,-0.10887 0.11664,-0.59463 0.40817,-1.07945 0.39375,-0.65481 0.61952,-0.82602 0.87787,-0.66577 0.29684,0.18413 0.2799,0.34227 -0.11566,1.07945 -0.443,0.82562 -0.9088,1.09059 -1.17038,0.66577 z"
       id="path31" /><path
       style="fill:#000000;stroke-width:0.912676"
       d="m 219.68017,124.54551 c -0.2628,-0.44704 -0.41454,-0.87635 -0.33715,-0.95401 0.32766,-0.32886 0.79558,-0.0936 1.13881,0.57256 0.45043,0.87422 0.45088,0.89591 0.022,1.0611 -0.21824,0.084 -0.52204,-0.16665 -0.82363,-0.67965 z"
       id="path30" /><path
       style="fill:#000000;stroke-width:0.912676"
       d="m 242.77792,131.30507 c -0.22171,-0.26812 -0.11516,-0.43562 0.52705,-0.82855 0.44273,-0.27086 0.90663,-0.45888 1.03093,-0.41783 0.52428,0.17316 0.34175,0.62205 -0.44158,1.08591 -0.70685,0.41856 -0.88214,0.44377 -1.1164,0.16047 z"
       id="path29" /><path
       style="fill:#000000;stroke-width:0.912676"
       d="m 213.31285,131.15984 c -0.77901,-0.40135 -0.87281,-0.53413 -0.65973,-0.93373 0.24408,-0.45772 0.26311,-0.45717 1.08893,0.0317 0.87865,0.5203 0.9469,0.63383 0.65602,1.09127 -0.12776,0.20091 -0.43009,0.14814 -1.08522,-0.1894 z"
       id="path28" /><path
       style="fill:#000000;stroke-width:0.912676"
       d="m 244.95355,139.41694 c 0,-0.41215 0.1607,-0.48383 1.0847,-0.48383 0.92398,0 1.08467,0.0718 1.08467,0.48383 0,0.41216 -0.16069,0.48384 -1.08467,0.48384 -0.924,0 -1.0847,-0.0717 -1.0847,-0.48384 z"
       id="path27" /><path
       style="fill:#000000;stroke-width:0.912676"
       d="m 210.48487,139.41694 c 0,-0.39166 0.1607,-0.48383 0.84364,-0.48383 0.68294,0 0.84364,0.0922 0.84364,0.48383 0,0.39169 -0.1607,0.48384 -0.84364,0.48384 -0.68294,0 -0.84364,-0.0922 -0.84364,-0.48384 z"
       id="path26" /><path
       style="fill:#000000;stroke-width:0.912676"
       d="m 227.57004,141.10876 c -0.70241,-0.41191 -1.02404,-1.56149 -0.65378,-2.33681 0.91937,-1.92522 3.57492,-1.24977 3.57492,0.90929 0,1.17031 -1.8326,2.06587 -2.92114,1.42752 z"
       id="path25" /><path
       style="fill:#000000;stroke-width:0.912676"
       d="m 212.82296,148.52777 c -0.18255,-0.47745 1.23399,-1.26952 1.60054,-0.89497 0.21287,0.21749 0.14381,0.397 -0.28948,0.75233 -0.66567,0.5459 -1.13726,0.59721 -1.31106,0.14264 z"
       id="path24" /><path
       style="fill:#000000;stroke-width:0.912676"
       d="m 243.33967,148.56005 c -0.71019,-0.42706 -0.88498,-1.15978 -0.27667,-1.15978 0.38262,0 1.64952,0.72523 1.64952,0.94426 0,0.55804 -0.6369,0.65803 -1.37285,0.21552 z"
       id="path23" /><path
       style="fill:#000000;stroke-width:0.912676"
       d="m 237.00703,154.67313 c -0.42873,-0.84343 -0.43737,-0.95143 -0.0869,-1.08641 0.21405,-0.0825 0.40647,-0.1201 0.42761,-0.0836 0.0212,0.0364 0.22256,0.3617 0.44758,0.72292 0.50315,0.8077 0.51319,1.06579 0.0484,1.24478 -0.24597,0.0948 -0.51211,-0.15896 -0.83673,-0.7976 z"
       id="path22" /><path
       style="fill:#000000;stroke-width:0.912676"
       d="m 219.59353,155.35983 c -0.37814,-0.21239 -0.37149,-0.29211 0.0899,-1.07705 0.39265,-0.66794 0.56778,-0.78984 0.82587,-0.57485 0.27455,0.22868 0.26511,0.39607 -0.0582,1.03471 -0.21224,0.41905 -0.40009,0.78096 -0.41749,0.80425 -0.0174,0.0234 -0.21538,-0.0609 -0.44,-0.18706 z"
       id="path21" /><path
       style="fill:#000000;stroke-width:0.912676"
       d="m 228.08078,156.8351 c 0,-0.8064 0.0803,-0.96767 0.48208,-0.96767 0.40173,0 0.48207,0.16127 0.48207,0.96767 0,0.80639 -0.0803,0.96768 -0.48207,0.96768 -0.40175,0 -0.48208,-0.16129 -0.48208,-0.96768 z"
       id="path20" /><rect
       style="fill:#ffffff;stroke:#000000;stroke-width:0.912676"
       id="rect1"
       width="35.736362"
       height="10.491607"
       x="210.68971"
       y="162.63924" /></g></svg>
