<?xml version="1.0" encoding="UTF-8" standalone="no"?>
<!-- Created with Inkscape (http://www.inkscape.org/) -->

<svg
   width="1122.5197"
   height="793.70081"
   viewBox="0 0 296.99999 210"
   version="1.1"
   id="svg1"
   xml:space="preserve"
   inkscape:version="1.3 (0e150ed6c4, 2023-07-21)"
   sodipodi:docname="reloj.svg"
   xmlns:inkscape="http://www.inkscape.org/namespaces/inkscape"
   xmlns:sodipodi="http://sodipodi.sourceforge.net/DTD/sodipodi-0.dtd"
   xmlns="http://www.w3.org/2000/svg"
   xmlns:svg="http://www.w3.org/2000/svg"><sodipodi:namedview
     id="namedview1"
     pagecolor="#ffffff"
     bordercolor="#000000"
     borderopacity="0.25"
     inkscape:showpageshadow="2"
     inkscape:pageopacity="0.0"
     inkscape:pagecheckerboard="0"
     inkscape:deskcolor="#d1d1d1"
     inkscape:document-units="mm"
     inkscape:zoom="1.4022026"
     inkscape:cx="503.85016"
     inkscape:cy="422.5495"
     inkscape:window-width="1920"
     inkscape:window-height="1001"
     inkscape:window-x="-9"
     inkscape:window-y="-9"
     inkscape:window-maximized="1"
     inkscape:current-layer="layer1" /><defs
     id="defs1" /><g
     inkscape:label="Capa 1"
     inkscape:groupmode="layer"
     id="layer1"><ellipse
       style="fill:#ffffff;stroke:#000000;stroke-width:1.28129"
       id="path1"
       cx="203.4729"
       cy="111.54317"
       rx="25.877201"
       ry="23.875826" /><path
       style="fill:#000000"
       d="m 203.04074,92.257257 c 0,-0.88194 0.0882,-1.05833 0.52917,-1.05833 0.44097,0 0.52916,0.17639 0.52916,1.05833 0,0.88194 -0.0882,1.05833 -0.52916,1.05833 -0.44098,0 -0.52917,-0.17639 -0.52917,-1.05833 z"
       id="path32" /><path
       style="fill:#000000"
       d="m 212.46317,95.744927 c -0.0736,-0.11907 0.12803,-0.65033 0.44804,-1.18058 0.43221,-0.71615 0.68003,-0.9034 0.96362,-0.72814 0.32584,0.20138 0.30724,0.37433 -0.12696,1.18058 -0.48627,0.90297 -0.99756,1.19275 -1.2847,0.72814 z"
       id="path31" /><path
       style="fill:#000000"
       d="m 193.81961,95.042557 c -0.28847,-0.48893 -0.45502,-0.95846 -0.37009,-1.04339 0.35967,-0.35967 0.87329,-0.10237 1.25005,0.6262 0.49443,0.95612 0.49492,0.97985 0.0241,1.16051 -0.23955,0.0919 -0.57303,-0.18226 -0.90407,-0.74332 z"
       id="path30" /><path
       style="fill:#000000"
       d="m 219.17342,102.4354 c -0.24336,-0.29324 -0.1264,-0.47644 0.57854,-0.90617 0.48596,-0.29625 0.99519,-0.50189 1.13162,-0.457 0.57549,0.1894 0.37513,0.68034 -0.48471,1.18766 -0.77588,0.45778 -0.96831,0.48534 -1.22545,0.17551 z"
       id="path29" /><path
       style="fill:#000000"
       d="m 186.83036,102.27656 c -0.8551,-0.43896 -0.95806,-0.58417 -0.72416,-1.02122 0.26791,-0.5006 0.28881,-0.49999 1.19528,0.0348 0.96448,0.56905 1.0394,0.69323 0.7201,1.19352 -0.14023,0.21973 -0.47209,0.16202 -1.19122,-0.20714 z"
       id="path28" /><path
       style="fill:#000000"
       d="m 221.56157,111.30725 c 0,-0.45077 0.17639,-0.52916 1.19063,-0.52916 1.01423,0 1.19062,0.0784 1.19062,0.52916 0,0.45077 -0.17639,0.52917 -1.19062,0.52917 -1.01424,0 -1.19063,-0.0784 -1.19063,-0.52917 z"
       id="path27" /><path
       style="fill:#000000"
       d="m 183.72616,111.30725 c 0,-0.42837 0.17639,-0.52916 0.92604,-0.52916 0.74965,0 0.92604,0.10079 0.92604,0.52916 0,0.42838 -0.17639,0.52917 -0.92604,0.52917 -0.74965,0 -0.92604,-0.10079 -0.92604,-0.52917 z"
       id="path26" /><path
       style="fill:#000000"
       d="m 202.48012,113.15757 c -0.77102,-0.45051 -1.12407,-1.70779 -0.71765,-2.55574 1.00918,-2.10559 3.9241,-1.36686 3.9241,0.99448 0,1.27995 -2.01159,2.25941 -3.20645,1.56126 z"
       id="path25" /><path
       style="fill:#000000"
       d="m 186.29262,121.27164 c -0.20038,-0.52217 1.35451,-1.38846 1.75688,-0.97882 0.23365,0.23788 0.15784,0.4342 -0.31776,0.82281 -0.73069,0.59705 -1.24834,0.65317 -1.43912,0.15601 z"
       id="path24" /><path
       style="fill:#000000"
       d="m 219.79005,121.30694 c -0.77956,-0.46706 -0.97143,-1.26843 -0.3037,-1.26843 0.42,0 1.81064,0.79318 1.81064,1.03273 0,0.61033 -0.69911,0.71968 -1.50694,0.2357 z"
       id="path23" /><path
       style="fill:#000000"
       d="m 212.83886,127.99274 c -0.4706,-0.92244 -0.48008,-1.04056 -0.0954,-1.18818 0.23494,-0.0902 0.44616,-0.13135 0.46937,-0.0915 0.0232,0.0398 0.2443,0.3956 0.4913,0.79066 0.55229,0.88336 0.56331,1.16564 0.0532,1.3614 -0.26999,0.1036 -0.56213,-0.17386 -0.91846,-0.87234 z"
       id="path22" /><path
       style="fill:#000000"
       d="m 193.72451,128.74379 c -0.41509,-0.2323 -0.40778,-0.31949 0.0987,-1.17797 0.43101,-0.73051 0.62324,-0.86383 0.90653,-0.62871 0.30137,0.25011 0.29101,0.43319 -0.064,1.13166 -0.23296,0.45831 -0.43917,0.85412 -0.45826,0.87959 -0.0191,0.0255 -0.23642,-0.0666 -0.48298,-0.20457 z"
       id="path21" /><path
       style="fill:#000000"
       d="m 203.04074,130.35726 c 0,-0.88194 0.0882,-1.05833 0.52917,-1.05833 0.44097,0 0.52916,0.17639 0.52916,1.05833 0,0.88195 -0.0882,1.05834 -0.52916,1.05834 -0.44098,0 -0.52917,-0.17639 -0.52917,-1.05834 z"
       id="path20" /><rect
       style="fill:#ffffff;stroke:#000000;stroke-width:1"
       id="rect1"
       width="39.226906"
       height="11.474537"
       x="183.951"
       y="136.7052" /></g></svg>
