<?xml version="1.0" encoding="UTF-8" standalone="no"?>
<!-- Created with Inkscape (http://www.inkscape.org/) -->

<svg
   width="1122.5197"
   height="793.70081"
   viewBox="0 0 296.99999 210"
   version="1.1"
   id="svg1"
   xml:space="preserve"
   inkscape:version="1.3 (0e150ed6c4, 2023-07-21)"
   sodipodi:docname="reloj con pilar.svg"
   xmlns:inkscape="http://www.inkscape.org/namespaces/inkscape"
   xmlns:sodipodi="http://sodipodi.sourceforge.net/DTD/sodipodi-0.dtd"
   xmlns="http://www.w3.org/2000/svg"
   xmlns:svg="http://www.w3.org/2000/svg"><sodipodi:namedview
     id="namedview1"
     pagecolor="#ffffff"
     bordercolor="#000000"
     borderopacity="0.25"
     inkscape:showpageshadow="2"
     inkscape:pageopacity="0.0"
     inkscape:pagecheckerboard="0"
     inkscape:deskcolor="#d1d1d1"
     inkscape:document-units="mm"
     inkscape:zoom="0.70110129"
     inkscape:cx="334.47378"
     inkscape:cy="325.91582"
     inkscape:window-width="1920"
     inkscape:window-height="1001"
     inkscape:window-x="-9"
     inkscape:window-y="-9"
     inkscape:window-maximized="1"
     inkscape:current-layer="layer1" /><defs
     id="defs1"><inkscape:perspective
       sodipodi:type="inkscape:persp3d"
       inkscape:vp_x="0 : 105 : 1"
       inkscape:vp_y="0 : 1000 : 0"
       inkscape:vp_z="296.99999 : 105 : 1"
       inkscape:persp3d-origin="148.5 : 70 : 1"
       id="perspective61" /></defs><g
     inkscape:label="Capa 1"
     inkscape:groupmode="layer"
     id="layer1"><path
       style="fill:#ffffff;fill-opacity:1;stroke:#000000;stroke-width:0.76238;stroke-dasharray:none"
       d=""
       id="path60"
       transform="scale(0.26458333)" /><path
       id="path74"
       style="fill:#000000"
       d="m 185.79434,80.528935 c -3.21293,0 -6.42603,1.178538 -8.97206,3.535701 -2.77966,2.573469 -4.14376,5.392013 -4.43952,9.17205 l -0.16071,2.048454 0.0189,10.20531 10.11385,0.11037 v 12.83591 c 0,8.3549 0.0913,12.80589 0.26303,12.83332 0.004,0.001 0.009,0.002 0.0129,0.004 0.0174,0.001 0.0643,0.005 0.077,0.006 -0.0135,-0.0315 0.007,-0.066 0.062,-0.0682 0.006,-2.5e-4 0.0134,-1.5e-4 0.0207,5.2e-4 0.0302,0.003 0.0601,0.006 0.0904,0.008 0.03,0.002 0.0605,0.001 0.0904,0.004 0.0279,0.004 0.0556,0.006 0.0837,0.008 0.0371,0.002 0.0745,0.002 0.11162,0.003 0.0402,3.1e-4 0.0802,4.4e-4 0.1204,5.2e-4 0.0327,7e-5 0.0655,5e-4 0.0982,5.1e-4 0.0364,0.002 0.0726,0.006 0.10904,0.008 0.0344,0.002 0.0689,0.003 0.10335,0.003 0.031,4.1e-4 0.062,4.2e-4 0.093,5.1e-4 0.0377,9e-5 0.0751,-2e-5 0.11265,0 0.0226,-4.5e-4 0.0448,0.004 0.0672,0.006 6.8e-4,6e-5 0.001,-7e-5 0.002,0 0.0435,-0.003 0.0871,-0.006 0.13074,-0.007 h 0.10387 0.0992 0.10025 0.11731 0.14314 c 0.0395,10e-6 0.0794,-4e-5 0.11885,0 0.0433,4e-5 0.0864,3e-4 0.12971,5.2e-4 0.0404,0 0.0805,6.1e-4 0.12093,0.002 0.0324,0.001 0.0651,0.003 0.0971,0.009 0.0224,0.004 0.0448,0.009 0.0672,0.0129 0.008,-0.001 0.0158,-0.003 0.0238,-0.004 0.0238,-0.004 0.0478,-0.006 0.0718,-0.007 0.0378,-0.002 0.0642,0.008 0.0786,0.0243 0.0278,-0.003 0.0554,-0.008 0.0822,-0.0171 0.0284,-0.009 0.0575,-0.0146 0.0868,-0.0196 v 5.2e-4 c 0.007,-0.001 0.0137,-0.002 0.0202,-0.002 0.0324,-0.001 0.0549,0.01 0.0667,0.0253 0.0127,-3.6e-4 0.0254,-0.002 0.0382,-0.002 h 0.0713 c 6e-4,-2.7e-4 0.001,-2.4e-4 0.002,-5.2e-4 0.004,-0.002 0.01,-0.004 0.0129,-0.006 l 1.93322,0.009 h 1.64486 v -12.9001 -12.90102 l 10.04121,0.004 0.013,-10.0475 v -1.645894 c 0,-2.022152 -0.94451,-5.131647 -2.11098,-6.949447 -0.46489,-0.724467 -1.55015,-1.96955 -2.41123,-2.766756 -2.54601,-2.357164 -5.75859,-3.535702 -8.97154,-3.535702 z m 0.0553,1.94045 c 0.43627,0.01022 0.8848,0.04158 1.34617,0.09405 2.67891,0.304677 5.0165,1.479013 6.92206,3.47679 1.65152,1.731445 2.38367,3.071072 2.91817,5.338176 0.7369,3.125669 1.04824,2.614765 -5.40226,8.871809 -3.18794,3.09232 -5.83609,5.61971 -5.88439,5.61671 -0.0483,-0.003 -2.69548,-2.53478 -5.88285,-5.62549 l -5.79499,-5.619816 0.42581,-2.297018 c 0.5572,-3.003841 1.59537,-5.01431 3.50883,-6.794934 2.31946,-2.158426 4.78952,-3.131839 7.84345,-3.060277 z m -0.0553,0.913639 c -0.14552,0 -0.26458,0.297659 -0.26458,0.661458 0,0.363802 0.11906,0.661459 0.26458,0.661459 0.14552,0 0.26459,-0.297657 0.26459,-0.661459 0,-0.363799 -0.11907,-0.661458 -0.26459,-0.661458 z m -5.02553,1.322917 c -0.39088,0 -0.49836,0.359698 -0.24753,0.828373 0.14552,0.271908 0.43643,0.494543 0.64647,0.494543 0.31131,0 0.32579,-0.122215 0.0801,-0.661458 -0.16576,-0.363802 -0.38114,-0.661458 -0.47904,-0.661458 z m 10.08156,0.01344 c -0.16419,0.02246 -0.3195,0.229821 -0.51005,0.648022 -0.24571,0.539243 -0.23068,0.661458 0.0806,0.661458 0.42705,0 1.00345,-0.89617 0.74362,-1.156001 -0.11401,-0.114009 -0.21568,-0.166955 -0.31419,-0.153479 z m -13.95057,3.81372 c -0.0537,-8.53e-4 -0.10164,0.0095 -0.14056,0.03359 -0.38669,0.23898 -0.24919,0.545636 0.37,0.826306 0.40639,0.18385 0.62763,0.183468 0.69763,-0.0026 0.11043,-0.293402 -0.5513,-0.851337 -0.92707,-0.857312 z m 17.86351,0.0026 c -0.34557,-0.05784 -1.03147,0.430393 -1.03147,0.804085 0,0.31132 0.12222,0.326305 0.66146,0.08062 0.66913,-0.30487 0.79805,-0.520736 0.49403,-0.824756 -0.0325,-0.03248 -0.0747,-0.05168 -0.12402,-0.05994 z m 0.87953,4.926831 c -0.25513,-0.0087 -0.50406,0.04931 -0.64854,0.193787 -0.1452,0.14516 -0.17993,0.40035 -0.077,0.56689 0.26977,0.43649 1.59267,0.223148 1.59267,-0.256832 0,-0.290047 -0.44192,-0.489376 -0.86713,-0.503845 z m -19.63808,0.239262 c -0.77397,0 -1.09643,0.384341 -0.49144,0.586011 0.71562,0.23854 1.28519,0.147355 1.28519,-0.205672 0,-0.24631 -0.27983,-0.380339 -0.79375,-0.380339 z m 3.92328,3.175 c -0.36931,0 -1.27745,0.781378 -1.27745,1.099158 0,0.30281 0.45545,0.281669 1.07539,-0.05013 0.55735,-0.29828 0.70197,-1.049032 0.20206,-1.049032 z m 11.79979,0.375688 c -0.0611,0.0067 -0.11531,0.02231 -0.15864,0.04909 -0.20325,0.12562 -0.14258,0.299402 0.18861,0.541569 0.56827,0.41553 1.18029,0.468076 1.18029,0.101286 0,-0.329951 -0.78242,-0.738504 -1.21026,-0.691947 z m -9.4325,2.434993 c -0.10125,0.02565 -0.23488,0.136864 -0.38912,0.357085 -0.21606,0.30848 -0.31352,0.7639 -0.21652,1.01182 0.14842,0.37957 0.23791,0.33482 0.56482,-0.28318 0.30295,-0.57273 0.30531,-1.019926 0.13074,-1.083658 -0.0262,-0.0096 -0.0562,-0.01059 -0.0899,-0.0021 z m 7.00164,0.0067 c -0.0326,-0.0057 -0.0625,-0.0041 -0.0894,0.0047 -0.17924,0.05815 -0.22046,0.421185 0.0233,0.876435 0.31749,0.59323 0.80116,0.71861 0.78806,0.20412 -0.005,-0.1819 -0.17187,-0.5464 -0.37155,-0.80977 -0.13137,-0.173276 -0.25261,-0.258332 -0.35037,-0.275436 z m -3.50263,3.268015 c -0.14552,0 -0.26458,0.35719 -0.26458,0.79375 0,0.43657 0.11906,0.79375 0.26458,0.79375 0.14552,0 0.26459,-0.35718 0.26459,-0.79375 0,-0.43656 -0.11907,-0.79375 -0.26459,-0.79375 z"
       sodipodi:nodetypes="csccccscccscscccscccscsccccccssccccccccccccscccccccccsssccsssssscccssssssssssssssssssscccsssssssssssssssssssssssssssssscssssscccssssssss" /><rect
       style="fill:#ffffff;fill-opacity:1;stroke:#000000;stroke-width:0.4;stroke-dasharray:none"
       id="rect112"
       width="10.849746"
       height="25.756353"
       x="172.55814"
       y="105.2897" /><rect
       style="fill:#ffffff;fill-opacity:1;stroke:#000000;stroke-width:0.4;stroke-dasharray:none"
       id="rect113"
       width="9.811944"
       height="25.473316"
       x="189.25731"
       y="105.57275" /><path
       style="fill:#000000;fill-opacity:1;stroke:#000000;stroke-width:0.190595;stroke-dasharray:none"
       d="m 653.04635,446.66858 v -47.84384 h 19.66704 19.66703 v 47.84384 47.84384 h -19.66703 -19.66704 z"
       id="path119"
       transform="scale(0.26458333)" /><path
       style="fill:#000000;fill-opacity:1;stroke:#000000;stroke-width:0.190595;stroke-dasharray:none"
       d="M 716.08172,447.17286 V 399.8333 h 17.71293 17.71294 v 47.33956 47.33956 h -17.71294 -17.71293 z"
       id="path120"
       transform="scale(0.26458333)" /><path
       style="fill:#000000;fill-opacity:1;stroke:#000000;stroke-width:0.190595;stroke-dasharray:none"
       d="m 670.85384,496.05638 -19.32033,-0.0319 v -48.6629 c 0,-48.57886 -4.4e-4,-48.6629 -0.25215,-48.6629 -0.24766,0 -0.25214,-0.084 -0.25214,-4.72766 v -4.72765 h 19.70445 19.70444 l 2.51552,2.41233 c 4.18318,4.01157 8.4203,8.01545 8.78142,8.29801 l 0.34057,0.26649 0.73103,-0.65411 c 0.96769,-0.86587 4.32922,-4.0498 7.93633,-7.51702 l 2.91889,-2.8057 h 19.7108 l 19.7108,-1e-5 -0.0412,53.35858 c -0.0226,29.34722 -0.0552,53.37265 -0.0724,53.38984 -0.051,0.051 -61.21056,0.0992 -82.11605,0.0646 z m 21.65265,-49.3878 v -47.96991 h -19.7931 -19.79311 v 47.96991 47.96991 h 19.79311 19.7931 z m 59.12717,0.50428 v -47.46563 h -17.83901 -17.839 v 47.46563 47.46563 h 17.839 17.83901 z"
       id="path121"
       transform="scale(0.26458333)" /><path
       style="fill:#000000;fill-opacity:1;stroke:#000000;stroke-width:0.190595;stroke-dasharray:none"
       d="m 659.83307,496.06722 -8.27873,-0.0438 -0.0419,-48.5465 c -0.0398,-46.06149 -0.0532,-48.55475 -0.26255,-48.70781 -0.20327,-0.14862 -0.22063,-0.52978 -0.22063,-4.84355 v -4.68224 h 19.76952 19.76952 l 0.37028,0.39248 c 0.40946,0.43401 9.46742,9.0691 10.43302,9.94596 0.57244,0.51984 0.62452,0.54115 0.90407,0.37004 0.28746,-0.17595 3.43722,-3.13466 8.76326,-8.23172 l 2.58445,-2.47334 19.78079,-0.002 19.78079,-0.002 -0.0683,53.33495 c -0.0375,29.33422 -0.0925,53.35919 -0.12214,53.38882 -0.0694,0.0695 -82.25276,0.15774 -93.16145,0.10009 z m 32.64207,-49.43016 0.0317,-47.93839 H 672.71357 652.9203 v 47.88586 c 0,26.33723 0.038,47.92386 0.0844,47.9703 0.0464,0.0464 8.93916,0.0701 19.76159,0.0525 l 19.67715,-0.0319 z m 59.12717,0.50385 0.0317,-47.43455 -17.80765,0.032 -17.80766,0.0319 -0.0323,47.27652 c -0.0177,26.00209 -0.005,47.34763 0.0277,47.43455 0.0478,0.12583 3.67593,0.15151 17.80823,0.12607 l 17.74825,-0.032 z"
       id="path122"
       transform="scale(0.26458333)" /><path
       style="fill:#000000;fill-opacity:1;stroke:#000000;stroke-width:0.190595;stroke-dasharray:none"
       d="m 654.21251,496.05692 -2.679,-0.0367 -0.0167,-15.78785 c -0.0539,-51.17043 -0.17596,-81.27257 -0.33005,-81.42661 -0.12044,-0.12041 -0.15759,-1.26611 -0.15759,-4.85999 v -4.70244 h 19.74226 19.74226 l 0.78625,0.72491 c 0.43244,0.3987 2.51185,2.37247 4.62091,4.38616 5.67543,5.4188 5.87902,5.605 6.12747,5.60425 0.25503,-7.7e-4 1.38374,-1.03519 7.38565,-6.76871 l 4.13135,-3.94661 h 19.82209 l 19.82208,-1e-5 -0.0282,50.33374 c -0.0155,27.68356 -0.0642,51.70013 -0.1081,53.37016 l -0.0799,3.03642 -17.66787,0.0838 c -16.52356,0.0784 -75.17524,0.0707 -81.11296,-0.0105 z m 18.49875,-97.23218 h 19.66443 l 0.0375,2.83666 0.0375,2.83666 -0.004,-2.86818 -0.004,-2.86818 h -19.73007 -19.73007 l -3.5e-4,33.37723 -3.6e-4,33.37722 0.0321,-33.3457 0.0321,-33.34571 z m 78.86432,1.04008 c -0.044,-0.11548 -0.44007,-0.15039 -1.48233,-0.13064 l -1.42225,0.0269 1.41829,0.0402 1.4183,0.0402 0.0309,12.00411 0.0309,12.00411 0.0332,-11.91369 c 0.0182,-6.55252 0.006,-11.9846 -0.0269,-12.07127 z"
       id="path123"
       transform="scale(0.26458333)" /><rect
       style="fill:#000000;fill-opacity:1;stroke:#000000;stroke-width:0.438277;stroke-dasharray:none"
       id="rect123"
       width="11.474484"
       height="25.533314"
       x="172.47401"
       y="105.58951" /><rect
       style="fill:#000000;fill-opacity:1;stroke:#000000;stroke-width:0.4;stroke-dasharray:none"
       id="rect124"
       width="1.5010295"
       height="3.2021964"
       x="197.6022"
       y="100.26878" /></g></svg>
